<svg xmlns="http://www.w3.org/2000/svg" viewBox="0 0 468.95 450.08"><defs><style>.cls-1{isolation:isolate;}.cls-2{fill:#5db0da;}.cls-3{fill:#0584c7;}.cls-4{font-size:29.4px;font-family:Quicksand-Bold, Quicksand;font-weight:700;}.cls-23,.cls-32,.cls-4{fill:#25405d;}.cls-5{letter-spacing:-0.02em;}.cls-6{letter-spacing:-0.02em;}.cls-7{letter-spacing:-0.03em;}.cls-8{letter-spacing:0em;}.cls-9{letter-spacing:-0.09em;}.cls-10{letter-spacing:-0.05em;}.cls-11{letter-spacing:-0.06em;}.cls-12{font-size:52.17px;}.cls-13{letter-spacing:-0.13em;}.cls-14{letter-spacing:-0.04em;}.cls-15{letter-spacing:-0.02em;}.cls-16{letter-spacing:-0.06em;}.cls-17,.cls-20,.cls-26{fill:#fff;}.cls-17{opacity:0.5;}.cls-18{fill:#7baed7;opacity:0.85;}.cls-19{fill:#89c5e4;}.cls-21{fill:#d8dde2;}.cls-22{fill:#b1bac5;}.cls-24{fill:#b5bbc5;}.cls-25{fill:#415972;}.cls-26{opacity:0.9;}.cls-27{fill:#dee2e7;}.cls-27,.cls-28,.cls-31{mix-blend-mode:multiply;}.cls-28{fill:#d6dbe0;}.cls-29{fill:#a4d3ea;}.cls-30,.cls-31{fill:#c4cbd3;}.cls-32{font-size:11.94px;font-family:Norwester-Regular, Norwester Regular;}.cls-33{letter-spacing:-0.02em;}.cls-34{fill:#80a0b9;}</style></defs><g class="cls-1"><g id="OBJECTS"><path class="cls-2" d="M394.26,213.2a143.74,143.74,0,0,1-6.14,41.74,141.83,141.83,0,0,1-10.95,26.44l0,0a144.45,144.45,0,0,1-180.47,65.88c-2.36-.93-4.67-1.94-7-3a144.28,144.28,0,0,1,2.77-263.41,140.12,140.12,0,0,1,17.08-6.19h0A144.14,144.14,0,0,1,250,68.93q6.52,0,12.88.58h0a144.27,144.27,0,0,1,131,132.8C394.13,205.91,394.26,209.53,394.26,213.2Z" transform="translate(-18.82 -12.99)"/><path class="cls-3" d="M282.76,103.9c-4.23-3.51-17.43-.89-17,6.14.42,6.69,12.29,5,15.94,2.61C284.15,111.07,287.13,106.4,282.76,103.9Z" transform="translate(-18.82 -12.99)"/><path class="cls-3" d="M300.46,121.59c-6.31-4.71-5.21,3.69-3.7,7.23.72,1.69,6.08,8.84.87,7.89-.66-2.12-1-5.18-3.65-5.75s-4.32,1.92-4.36,4.36c-.12,6.43,8-.1,7.64,7.53,5.24.88,12.1-2.53,8.89-8.18-1.54-2.7-3.4-3.62-3.89-6.94C301.88,125.09,303.11,122.44,300.46,121.59Z" transform="translate(-18.82 -12.99)"/><path class="cls-3" d="M196.68,347.28c1-1.93,1.82-4.31,2.47-5.21,1-1.44,4-2.06,4.57-3.8.45-1.31-.83-4-.77-5.62.32-7.66,7.69-11.56,12-17,2.43-3.1,3.44-7.12,7-7.95s5.62.72,8.45-3c3-4,4.4-7,8.69-10.13,5-3.68,6-5.31,7.06-11.11,1.41-7.75,9.62-12.84,5.24-21.07-3.6-6.77-11-10-18.2-10-10.2,0-12.37-4.6-18-12.19-3.59-4.83-6.95-3.78-11.71-6-3-1.43-3.5-3.64-7.8-4.16-3.26-.39-10,0-12.2-2.9-1.79-2.35,1.34-5.28-1.1-7.57s-6.39,0-5.73-4.69c.31-2.29,5.08-5.25,1.84-7.53-4.06-2.88-6.44,3.52-8.14,5-7.58,6.57-12.66-8-7-13.55,3.87-3.78,15.63-7.79,19.74-2.69,1.56,1.93,1.24,10.15,6.11,7.86,4-1.91-.59-8.28-.82-11.14-.32-3.68,2.46-5.87,4.71-8.74,1.26-1.6,3-3,4.15-4.58s1-3.63,2-5.44c3.22-6,9.67-3.56,13.61-7.39,6.19-6-4.62-4.26-6.3-5.59-4.2-3.35,5.2-5.08,7.35-5.44,4.3-.7,12.24-1.42,12.47-7.22.33-7.91-9.78-11.25-15.61-12-4.49-.57-4.69-2.73-8.13-5.05-3-2-6.93-1.16-10.5-.94.6,5.17,3.37,10.25.66,15.77-3.24,6.64-8.7,2.31-12.18-1.63-2.53-2.84-3.25-4.1-6.89-5.67-3.18-1.38-5.76-2.86-6.51-6.6-1.23-6.24,6.68-13.76,12.13-15.56,4.21-1.42,8.15-2.73,12.26-1.26,5.25,1.87,5.86,4.57,8.85,8.68,6.93,9.42,17.13,3.14,15.48-7.6-.72-4.66-4.26-7.42-8.42-9-3.31-1.28-8.54-.64-11.34-2.81-2.62-2-2.29-6.8-5.55-8-2.53-.89-8,1.15-9.4,3.26-1.58,2.34,2.07,14.28-5.4,11.48-1.42-.52-4.05-4.55-5-5.77-1.61-2.17-2-3.67-.58-6.43,2.23-4.21,9-6.41,13.12-8.21,3.21-1.4,6.4-2.43,8.32-5.89a5.27,5.27,0,0,0,.71-4.23,144.62,144.62,0,0,0-77.64,81.8c1.6,3.48,1.58,7.88,1.52,11.86-.11,6,3.09,8.45,7.48,12.07s3.5,5.43,5.27,10.27c1.06,2.92,5.8,10.46,9.44,9.1,1.41-6.28-9.21-10.39-6.69-16.77,3.4.77,4.55,4.43,6.24,7.15,2.17,3.48,6.81,5.75,8,9.7s-.73,5.52,2.6,8.37a12.31,12.31,0,0,0,9.1,3.41c7.35.12,13.56,1.45,18.34,7.56,2.75,3.49,3.56,4,7.66,5.18,2,.58,6,1.86,4.73,4.65-.38.78-3.8.93-4.64,1.83-1.79,1.92-.57,2.53-.89,4.4-.7,4-2.68,6.88-4.29,10.58-3,6.91-.67,10,4.71,14,4.87,3.67,2.63,6,4,11.5,1.92,7.73,5.35,13,4.59,21.27-.46,4.82-3,9.29-3.26,13.94s3.11,8.22,3.94,12.6c1,5.48-3.87,12.81-3,18.94Z" transform="translate(-18.82 -12.99)"/><path class="cls-3" d="M274,92.41c-2.25,2.51-6.19,5-9,6.88-3.4,2.28-7.25,2.73-9.33,6.34-3.15,5.46-.52,18.37-8.64,19.57-6.59,1-13.8-8.5-16.64-13.44-3.39-6,.78-10.1-.68-15.81-.74-2.85-2.87-3-4.65-5.15-1.45-1.74-2-4-3.22-6a11.43,11.43,0,0,0-5.88-5c-1.47-.63-6.15-1.1-6.78-3a2,2,0,0,1,.4-2.06h0A144.14,144.14,0,0,1,250,68.93q6.52,0,12.88.58h0c1.29.93,2.92,1.52,4,2.61,3.71,3.83-.62,5.22-.73,9C266,87.16,281.35,84.25,274,92.41Z" transform="translate(-18.82 -12.99)"/><path class="cls-3" d="M359.49,187.68c-1.21,4.1,4.68,10.32,7.07,12.85,3.41,3.56,3.46,7.3,6.19,11.08,3.74,5.17,19.43-2.26,15.48,8.17-2.42,6.39-7.7,10.5-12.57,14.76-3.48,3.06-7.83,8.09-6.19,12.94s5.1,6.51.55,11.51c-2,2.16-8.35,4-9.28,6.52-.53,1.43.82,3.51.73,5-.13,2.13-1.34,3.74-2.33,5.54-2,3.6-4.16,8.11-7.2,10.88s-9.67,5-13.76,3.91c-5.37-1.39-5.63-6.64-6.31-11.09-.84-5.5-3.35-7.3-6.58-11.57-4-5.28-2.9-8.63-1.69-14.45,1-5,1-8.81-1.29-13.4-2.1-4.25-3.8-6.5-3.79-11.48,0-9.68-7.12-7.77-15.07-6.91-8.57.93-14.32.88-20-6.19-3.57-4.46-5.93-14.14-3.82-19.6,1.34-3.49,4.57-4.47,7.08-6.79,3.21-2.92,2.32-5.71,3.76-9.31,1-2.41,2.84-4.91,5-5.16,1.46-.17,1.94,1.21,3.51.8,1.31-.35,3.54-3.17,5.05-3.94,2.45-1.26,4.76-1.4,7.38-2,5.36-1.19,13.51-5.16,13.71,3.74,4.07.8,6.49,7.92,10.17,7.3,2.84-.5,3.27-3.68,6.6-4a18.15,18.15,0,0,1,6.37.54c3.08,1,7.22,6,10.7,4.16,1.58-.85,4-7.09,3.63-9-.61-3.14-2.11-2.44-4.78-2.54-1.95-.06-6.52.48-7.71-1.61-1.06-1.87,1.31-4.16,1.59-5.93-2.29-.28-4.89.65-7.13,1.1-.08,2.14,0,7.53-3.68,6.86-3.44-.63-.95-7.68-1.86-10-.84-2.09-3.64-4.51-5.18-6.2s-5.78-5.63-7.41-2c-1.21,2.66,2.71,4.65,4.15,6,2.43,2.3,2.45,2.27,1.66,4.42-.23.65-1.86.59-2.16,1.37s1,2.16.89,3.1c-.43,5.17-7.12,2.69-5.43-2.09.88-2.46,2.41-1.31.64-4-.39-.6-1.87-1.08-2.44-1.67-1.19-1.23-1.36-3.83-2.88-4.75s-9.56.89-11.2,2.57c-2.84,2.94-.49,7.48-4.32,10.1-2.29,1.57-4.3,1.58-6.35,3.49-1.06,1-.93,3.86-3.08,1.94s.8-2.8-3.06-4.19c-1.7-.61-3.05.32-4.14-1.43-2.13-3.41.47-9,3.76-9.75,2.28-.51,7.31,1.43,7.61-1.79s-4.07-2.8-5.44-4.34c-4.33-4.87,3.21-3.8,5.72-3.54,3.2.31,3.08.31,5.32-1.53s4-3.68,6.87-5.07c6.08-2.89,2.41-6,4.22-11.81,2-6.26,6.46-4.41,5.72,1.27-.22,1.72-1.76,5-.33,6.56,1.83,2.07,4.67-.69,6.65-1.52,2.51-1,5.12-.75,7.76-1.52,3.41-1,3.49-2.35,5.59-4.83,1.65-1.94,9.85-6.54,5.7-9.82-2.61-2-7.56,2.83-7.69-2.51-.09-3.93,5.67-4.49,4.64-8.25-5.34-3.73-13.67,5.1-12.31,10.42.81,3.22,2.62,4.52.84,7.91-1.57,3-5,6.07-7.54,2.57-1.41-2,0-6.58-2.87-7.69-3.41-1.29-4.49,4.06-7.3,4.53-7.66,1.26,1.1-12.83,2.42-14.9,2.47-3.85,5.85-6.23,9.41-9.12,3.09-2.53,5.06-4.11,6-6.86a144.09,144.09,0,0,1,60.42,106.8,11.05,11.05,0,0,1-4.22,1.58c-3.35.71-8.63,5.66-11.87,5.45-2.82-.19-4.74-3.62-6-6C371.07,202,362,179.16,359.49,187.68Z" transform="translate(-18.82 -12.99)"/><path class="cls-3" d="M377.15,281.4c-7.94-1.63-4.83-15.14,0-19.15,2.2-1.79,1.88-1.15,3.27-4,.85-1.74,2.14-4.87,4.15-5.24a3,3,0,0,1,3.52,1.91Z" transform="translate(-18.82 -12.99)"/><text class="cls-4" transform="translate(122.23 393.77)"><tspan class="cls-5">C</tspan><tspan x="22.08" y="0">O</tspan><tspan class="cls-6" x="47.08" y="0">R</tspan><tspan class="cls-7" x="64.95" y="0">O</tspan><tspan class="cls-8" x="89.18" y="0">N</tspan><tspan class="cls-9" x="111.85" y="0">A</tspan><tspan class="cls-10" x="128.2" y="0">V</tspan><tspan x="148.78" y="0">I</tspan><tspan class="cls-11" x="157.75" y="0">R</tspan><tspan x="174.36" y="0">US</tspan><tspan class="cls-12"><tspan class="cls-13" x="-4.43" y="46.5">V</tspan><tspan class="cls-14" x="27.65" y="46.5">A</tspan><tspan class="cls-15" x="59.26" y="46.5">C</tspan><tspan x="98.44" y="46.5">CI</tspan><tspan class="cls-16" x="154.58" y="46.5">N</tspan><tspan x="191.41" y="46.5">E</tspan></tspan></text><path class="cls-17" d="M153.24,293.82l33.42,21.58s71.45-108.46,73.44-112.66-3.84-8.43-5.39-11.57,2.52-6.48,2.52-6.48l-4.09-4.29-4.24-2.74-5.59-1.95s-1.37,5.07-4.87,4.95-9.77-3.68-12.77-.14c-.36.42-1.67,2.37-3.71,5.48l-1,1.52-4.16,6.41-1,1.52-4.13,6.43-1,1.52c-1.32,2.06-2.7,4.21-4.12,6.44l-1,1.52c-1.33,2.1-2.71,4.25-4.11,6.44l-1,1.53-4.11,6.44-1,1.53c-1.36,2.13-2.72,4.29-4.1,6.44l-1,1.53-4.1,6.45c-.33.51-.65,1-1,1.53C168.68,269.42,153.24,293.82,153.24,293.82Z" transform="translate(-18.82 -12.99)"/><path class="cls-18" d="M254.92,211.05l.47-.73Z" transform="translate(-18.82 -12.99)"/><path class="cls-18" d="M254,212.55l.53-.82Z" transform="translate(-18.82 -12.99)"/><path class="cls-18" d="M255.75,209.76l.48-.74Z" transform="translate(-18.82 -12.99)"/><path class="cls-18" d="M256.56,208.5l.43-.68Z" transform="translate(-18.82 -12.99)"/><path class="cls-18" d="M252.9,214.21l.64-1Z" transform="translate(-18.82 -12.99)"/><path class="cls-18" d="M250.58,217.8l1.95-3Z" transform="translate(-18.82 -12.99)"/><path class="cls-18" d="M257.94,206.32c.11-.19.22-.36.33-.53C258.16,206,258.05,206.13,257.94,206.32Z" transform="translate(-18.82 -12.99)"/><path class="cls-18" d="M257.28,207.36l.39-.62Z" transform="translate(-18.82 -12.99)"/><path class="cls-18" d="M259.73,203.41c.06-.1.11-.18.15-.26C259.84,203.23,259.79,203.31,259.73,203.41Z" transform="translate(-18.82 -12.99)"/><path class="cls-19" d="M253,188.23c-.49,1.58-.67,3-.22,3.91a19.45,19.45,0,0,0,2.52,3.55c2.13,2.61,3.58,4.56,2.86,6.1-.9,1.84-15.71,24.64-33.59,51.94-.44-.29-.88-.58-1.29-.9-2.76-2-5.23-4.4-7.83-6.59a53.85,53.85,0,0,0-8.37-6c-2.61-1.44-5.45-2.47-8.19-3.65a48.49,48.49,0,0,1-5.05-2.52l4.5-7.08L208.47,211l4.11-6.44,1-1.51c1.45-2.28,2.84-4.44,4.13-6.43l1-1.53,4.16-6.4,1-1.51c2.86-4.36,3.43-5.13,3.55-5.27a1.84,1.84,0,0,1,.71-.53c1.4-.62,3.85,0,6,.62a20.22,20.22,0,0,0,4.28.85,5.69,5.69,0,0,0,2.44-.48,9.69,9.69,0,0,0,2.69-2.67c.8-1,1.58-2.17,2.23-3.18l3.17,1.12,4.24,2.73,2.25,2.36A28.46,28.46,0,0,0,253,188.23Z" transform="translate(-18.82 -12.99)"/><path class="cls-18" d="M259.24,204.22l-.24.39Z" transform="translate(-18.82 -12.99)"/><path class="cls-18" d="M249.14,220c.2-.3.39-.6.58-.9C249.53,219.42,249.34,219.72,249.14,220Z" transform="translate(-18.82 -12.99)"/><path class="cls-18" d="M258.52,205.39l.27-.44Z" transform="translate(-18.82 -12.99)"/><path class="cls-18" d="M259.41,203.94l.19-.32Z" transform="translate(-18.82 -12.99)"/><path class="cls-18" d="M235.05,241.67l.72-1.1Z" transform="translate(-18.82 -12.99)"/><path class="cls-18" d="M233.83,243.53l.39-.59Z" transform="translate(-18.82 -12.99)"/><path class="cls-18" d="M236.74,239.08l.54-.83Z" transform="translate(-18.82 -12.99)"/><path class="cls-18" d="M238.3,236.69l.45-.69Z" transform="translate(-18.82 -12.99)"/><path class="cls-18" d="M195.45,227.3l-3.53,5.55h0Z" transform="translate(-18.82 -12.99)"/><path class="cls-18" d="M260.1,202.74a2.36,2.36,0,0,1-.14.26C260,202.89,260.07,202.81,260.1,202.74Z" transform="translate(-18.82 -12.99)"/><path class="cls-18" d="M247.94,221.88l.53-.82Z" transform="translate(-18.82 -12.99)"/><path class="cls-18" d="M244,227.92l.54-.83Z" transform="translate(-18.82 -12.99)"/><path class="cls-18" d="M245.28,226l.69-1.06Z" transform="translate(-18.82 -12.99)"/><path class="cls-18" d="M246.65,223.86l.53-.82Z" transform="translate(-18.82 -12.99)"/><path class="cls-18" d="M242.57,230.13l.56-.85Z" transform="translate(-18.82 -12.99)"/><path class="cls-18" d="M239.64,234.63l.74-1.13Z" transform="translate(-18.82 -12.99)"/><path class="cls-18" d="M241,232.5l.78-1.2Z" transform="translate(-18.82 -12.99)"/><rect class="cls-20" x="112.73" y="286.99" width="123.45" height="23.21" transform="translate(501.11 300.99) rotate(122.84)"/><rect class="cls-21" x="133.57" y="325.25" width="52.93" height="12.01" transform="translate(506.32 363.47) rotate(122.84)"/><path class="cls-22" d="M261.11,160.92,293.66,110s4.29-2.47,3.72-1.57-35,54.73-35,54.73Z" transform="translate(-18.82 -12.99)"/><path class="cls-23" d="M121,343.84c-1.8-1.87,1.36-7.84,5.48-5s29.81,16.9,31,21.52c.94,3.53-2.82,5.62-4.74,4.59S123.71,346.66,121,343.84Z" transform="translate(-18.82 -12.99)"/><polygon class="cls-24" points="194.49 246.84 198.86 240.05 179.36 227.46 177.03 231.09 194.49 246.84"/><polygon class="cls-22" points="154.11 309.36 158.48 302.56 138.97 289.98 136.65 293.61 154.11 309.36"/><path class="cls-25" d="M191,238.45s30.92,19.71,30.6,19.85,3.7-5.91,3.7-5.91-7.51-15.16-10.09-17.29-20.35-2.76-20.35-2.76Z" transform="translate(-18.82 -12.99)"/><path class="cls-26" d="M254.71,191.16c1.55,3.14,7.39,7.39,5.38,11.58S186.66,315.4,186.66,315.4l-33.42-21.58s15.44-24.4,32.07-50.57l1-1.53c1.36-2.14,2.74-4.29,4.1-6.45l1-1.52,4.1-6.44c.33-.51.66-1,1-1.54,1.39-2.17,2.77-4.33,4.11-6.44l1-1.53c1.39-2.2,2.77-4.35,4.1-6.43l1-1.53c1.42-2.23,2.8-4.38,4.12-6.44l1-1.53,4.12-6.42,1-1.52c1.56-2.41,2.95-4.57,4.15-6.41l1-1.52c2-3.11,3.35-5.06,3.71-5.48,3-3.55,9.28,0,12.77.15a4.47,4.47,0,0,0,3.44-2.16,17,17,0,0,0,2-3.62c.18-.47.28-.77.28-.77l2.59,1c-.19.29-.4.61-.64,1-.76,1.14-1.75,2.51-2.7,3.68a10.59,10.59,0,0,1-2.58,2.6,5.69,5.69,0,0,1-2.44.48,20.22,20.22,0,0,1-4.28-.85c-2.17-.58-4.62-1.24-6-.62a1.84,1.84,0,0,0-.71.53c-.12.14-.69.91-3.55,5.27l-1,1.51-4.16,6.4-1,1.53c-1.29,2-2.68,4.15-4.13,6.43l-1,1.51L208.47,211,198.29,227l-11.12,17.47c-13.91,21.9-27,42.56-30.89,48.72L186,312.35c28.6-43.43,70.56-107.43,72.09-110.56.72-1.54-.73-3.49-2.86-6.1a19.45,19.45,0,0,1-2.52-3.55c-.45-.92-.26-2.39.25-4a30.08,30.08,0,0,1,2.41-5.37l1.83,1.93s-2.63,2.16-2.84,4.65A3.12,3.12,0,0,0,254.71,191.16Z" transform="translate(-18.82 -12.99)"/><path class="cls-27" d="M254.4,189.36a3.27,3.27,0,0,0,.31,1.8c1.55,3.14,7.39,7.39,5.38,11.58S186.66,315.4,186.66,315.4L170.4,304.9l78.15-120.63,3.12-4.82,1.47,1,4.48,3.86v0C257.4,184.45,254.67,186.84,254.4,189.36Z" transform="translate(-18.82 -12.99)"/><path class="cls-28" d="M257.61,184.28c-.21.17-2.94,2.56-3.21,5.08l0,0-1.4-1.21-4.43-3.86-5.16-4.47-1.51-1.29a17,17,0,0,0,2-3.62l2.23,1.23,2.81,1.55,2.77,1.78,1.47,1Z" transform="translate(-18.82 -12.99)"/><path class="cls-23" d="M241.31,175.6s.4-1.62,3.12-3.85c3.15-2.59,15.74-12.08,16.85-11.83s2.75,1.25,2.66,2.51c-.07,1.06-3.46,18.41-4.24,21.08s-2.14,2.59-2.14,2.59Z" transform="translate(-18.82 -12.99)"/><path class="cls-23" d="M143,292.69c-2.77-2.58.59-9.38,6.71-5.2s43.56,25.5,46,31.34c1.85,4.48-2.95,6.43-5.75,4.86S147.18,296.57,143,292.69Z" transform="translate(-18.82 -12.99)"/><rect class="cls-23" x="227.08" y="186.96" width="1.89" height="6.35" rx="0.84" transform="translate(492.52 88.36) rotate(122.78)"/><path class="cls-23" d="M224,192.92h.22a.84.84,0,0,1,.84.84v4.67a.84.84,0,0,1-.84.84H224a.84.84,0,0,1-.84-.84v-4.68a.83.83,0,0,1,.83-.83Z" transform="translate(491.61 100.95) rotate(122.81)"/><path class="cls-23" d="M220.18,198.88h.22a.83.83,0,0,1,.83.83v4.68a.84.84,0,0,1-.84.84h-.22a.83.83,0,0,1-.83-.83v-4.68A.84.84,0,0,1,220.18,198.88Z" transform="translate(490.58 113.14) rotate(122.76)"/><rect class="cls-23" x="216.9" y="204.04" width="1.89" height="9.78" rx="0.84" transform="translate(492.62 125.9) rotate(122.78)"/><rect class="cls-23" x="211.56" y="210.78" width="1.89" height="6.35" rx="0.84" transform="translate(488.62 138.16) rotate(122.78)"/><rect class="cls-23" x="207.67" y="216.73" width="1.89" height="6.35" rx="0.84" transform="translate(487.62 150.56) rotate(122.78)"/><path class="cls-23" d="M204.63,222.69h.22a.83.83,0,0,1,.83.83v4.68a.84.84,0,0,1-.84.84h-.22a.83.83,0,0,1-.83-.83v-4.68A.84.84,0,0,1,204.63,222.69Z" transform="matrix(-0.54, 0.84, -0.84, -0.54, 486.65, 162.93)"/><rect class="cls-23" x="201.62" y="228.02" width="1.89" height="9.78" rx="0.84" transform="translate(489.24 175.73) rotate(122.78)"/><rect class="cls-23" x="196.08" y="234.62" width="1.89" height="6.35" rx="0.84" transform="matrix(-0.54, 0.84, -0.84, -0.54, 484.81, 187.89)"/><rect class="cls-23" x="192.21" y="240.58" width="1.89" height="6.35" rx="0.84" transform="translate(483.83 200.05) rotate(122.73)"/><rect class="cls-23" x="188.34" y="246.54" width="1.89" height="6.35" rx="0.84" transform="translate(482.91 212.81) rotate(122.78)"/><path class="cls-23" d="M186.75,251.72H187a.84.84,0,0,1,.84.84v8.11a.83.83,0,0,1-.83.83h-.22a.84.84,0,0,1-.84-.84v-8.11a.84.84,0,0,1,.84-.84Z" transform="translate(484.96 225.43) rotate(122.78)"/><rect class="cls-23" x="180.85" y="258.62" width="1.89" height="6.35" rx="0.84" transform="translate(481.5 237.41) rotate(122.73)"/><rect class="cls-23" x="176.96" y="264.57" width="1.89" height="6.35" rx="0.84" transform="matrix(-0.54, 0.84, -0.84, -0.54, 480.51, 250.29)"/><path class="cls-23" d="M173.9,270.52h.22a.83.83,0,0,1,.83.83V276a.84.84,0,0,1-.84.84h-.22a.83.83,0,0,1-.83-.83v-4.68A.84.84,0,0,1,173.9,270.52Z" transform="translate(479.51 262.49) rotate(122.76)"/><path class="cls-17" d="M256.52,367l.23.1a32.48,32.48,0,0,0,6.6,1.77,112.73,112.73,0,0,0,17.3,1.57c3.88.1,7.78.16,11.66-.09,1.33,0,2.66.06,4,.07a143,143,0,0,0,17.19-.84,56.21,56.21,0,0,0,7.86-1.39,16.89,16.89,0,0,0,5.53-2.32,9.53,9.53,0,0,0,3.19-5.15,44.41,44.41,0,0,0,1.47-8.48,168.74,168.74,0,0,0,.45-17c-.05-5.54.09-11.11.14-16.66q.09-10.93.09-21.87c0-3.2,0-6.37,0-9.55,0-2.66,0-5.35-.11-8a53.08,53.08,0,0,0-2.28-12.87,40.34,40.34,0,0,0-3.21-7.31c-.91-1.72-1.9-3.41-2.89-5.09-1.14-2-2.39-3.92-3.51-5.91a10.25,10.25,0,0,1-1.44-4.31c-.18-1.77-.25-3.55-.28-5.33,0-1.33-.05-2.66-.06-4a1.92,1.92,0,0,0,0-.24c0-1.05,0-2.11,0-3.16a.65.65,0,0,0-.65-.66l-5.36,0-12.84,0c-5.2,0-10.39,0-15.58-.05l-13.43,0c-1.48,0-3,0-4.44,0-.7,0-1.41-.06-2.11,0H264a.69.69,0,0,0-.68.66c0,1.06,0,2.11,0,3.16,0,.75,0,1.51,0,2.24,0,1,0,2-.07,3-.06,1.48-.13,3-.28,4.44a10.53,10.53,0,0,1-1.51,4.33c-2.42,4.14-5.05,8.13-7.27,12.39a43.15,43.15,0,0,0-4,12.29c-1.13,6.25-1,12.64-1,19Q249,302.26,249,313c0,6.45,0,12.88.05,19.33,0,5-.15,10,0,15a73.48,73.48,0,0,0,.89,9.26,20,20,0,0,0,2.26,7.09A8.69,8.69,0,0,0,256.52,367Z" transform="translate(-18.82 -12.99)"/><path class="cls-19" d="M332.14,318.58q.09-10.93.09-21.87c0-3.2,0-6.37,0-9.55,0-2.66,0-5.35-.11-8a55.25,55.25,0,0,0-1.41-9.74l-79.8-.71c-.33,1.28-.63,2.56-.86,3.87-1.13,6.25-1,12.64-1,19Q249,302.26,249,313c0,6.45,0,12.88.05,19.33,0,5-.15,10,0,15a73.48,73.48,0,0,0,.89,9.26,20,20,0,0,0,2.26,7.09,8.69,8.69,0,0,0,4.3,3.31l.23.1a32.48,32.48,0,0,0,6.6,1.77,112.73,112.73,0,0,0,17.3,1.57c3.88.1,7.78.16,11.66-.09,1.33,0,2.66.06,4,.07a143,143,0,0,0,17.19-.84,56.21,56.21,0,0,0,7.86-1.39,16.7,16.7,0,0,0,5.53-2.33,9.47,9.47,0,0,0,3.19-5.14,44.41,44.41,0,0,0,1.47-8.48,168.74,168.74,0,0,0,.45-17C332,329.7,332.09,324.13,332.14,318.58Z" transform="translate(-18.82 -12.99)"/><path class="cls-26" d="M256.51,367a33.53,33.53,0,0,0,6.83,1.87,114,114,0,0,0,17.3,1.55c3.88.11,7.79.16,11.67-.08q2,.06,4,.06a139.29,139.29,0,0,0,17.21-.83,56.36,56.36,0,0,0,7.85-1.4,16.68,16.68,0,0,0,5.53-2.32,9.51,9.51,0,0,0,3.2-5.14,43.48,43.48,0,0,0,1.45-8.48,165.83,165.83,0,0,0,.45-17c0-5.55.11-11.11.15-16.66q.08-10.93.09-21.88,0-4.77,0-9.54c0-2.67,0-5.35-.11-8a52.45,52.45,0,0,0-2.28-12.85c-1.39-4.44-3.76-8.42-6.1-12.42-1.15-2-2.38-3.91-3.52-5.89a10.47,10.47,0,0,1-1.43-4.32c-.3-3.09-.31-6.22-.33-9.33,0-1.13,0-2.27,0-3.41a.65.65,0,0,0-.65-.65h-2.09c0,1.46-.16,4.43-.16,4.43,0,3,0,6.14.34,9.25a13.34,13.34,0,0,0,1.81,5.48c.64,1.13,1.32,2.24,2,3.35.52.85,1,1.71,1.54,2.57l.24.4c2.23,3.83,4.35,7.45,5.6,11.42a49.25,49.25,0,0,1,2.14,12.14c.12,2.05.11,4.17.11,6.23v1.64c0,3.18,0,6.35,0,9.53q0,10.94-.1,21.86c0,2,0,4-.07,6-.05,3.51-.1,7.13-.08,10.71v.25a160.88,160.88,0,0,1-.44,16.43,42.36,42.36,0,0,1-1.34,7.91,10,10,0,0,1-1.08,2.5,4.47,4.47,0,0,1-1.05,1.14,13.89,13.89,0,0,1-4.56,1.86,53.59,53.59,0,0,1-7.45,1.32,136.9,136.9,0,0,1-16.85.82c-1.31,0-2.62,0-3.93-.07h-.27c-3.56.22-7.13.19-11.4.08A111.56,111.56,0,0,1,263.87,366a30,30,0,0,1-6.24-1.69,5.83,5.83,0,0,1-2.93-2.16,17.46,17.46,0,0,1-1.88-6,70.89,70.89,0,0,1-.84-8.89c-.13-3.11-.1-6.29-.07-9.38,0-1.84,0-3.68,0-5.52q-.08-9.66-.06-19.31,0-10.72.07-21.45l0-2.77a91,91,0,0,1,.94-15.69,39.82,39.82,0,0,1,3.77-11.48c1.42-2.75,3.09-5.48,4.7-8.12.83-1.37,1.67-2.74,2.48-4.12a13.35,13.35,0,0,0,1.9-5.51c.17-1.59.24-3.16.29-4.63.07-1.71.25-6.49.3-9.12h-.19c-.7,0-1.41-.06-2.11,0H264a.67.67,0,0,0-.67.66c0,2.79,0,5.57-.14,8.36-.06,1.48-.13,3-.28,4.44a10.59,10.59,0,0,1-1.51,4.33c-2.42,4.13-5.06,8.13-7.26,12.38a43,43,0,0,0-4.05,12.3c-1.12,6.24-.95,12.63-1,19Q249,302.26,249,313q0,9.66.06,19.33c0,5-.15,10,0,15a73.48,73.48,0,0,0,.89,9.26,19.78,19.78,0,0,0,2.27,7.09A8.66,8.66,0,0,0,256.51,367Z" transform="translate(-18.82 -12.99)"/><path class="cls-20" d="M263.23,352a19.15,19.15,0,0,0,2.84.63c.84.14,1.67.23,2.52.31,3.16.29,6.34.26,9.52.27l16.57.06c.65,0,1.33,0,2,0h4.07c2.67,0,5.33.05,8,0a52.34,52.34,0,0,0,5.46-.39,16.29,16.29,0,0,0,4.47-1.06c4.15-1.83,4.9-6.54,5.05-10.58.5-14,1.24-28.11,1.24-42.16,0-4.44,0-8.9-.42-13.32a20.24,20.24,0,0,0-1-5.23c-1.17-3.11-5.27-3.18-8.06-3.65l-.42-.06a36.56,36.56,0,0,0-4.43-.35c-2.48-.13-5-.23-7.45-.29-3.79-.09-7.6-.18-11.4-.1-1.94,0-3.89,0-5.83,0-7.8.06-16-.37-23.66,1.29a7.16,7.16,0,0,0-3.09,1.23,6.25,6.25,0,0,0-1.95,3.9c-1.46,8.68-.88,17.75-.79,26.5q.09,9,.37,18c.15,5.28-.63,11.64.65,16.78a11.4,11.4,0,0,0,2.8,6.47A7.28,7.28,0,0,0,263.23,352Z" transform="translate(-18.82 -12.99)"/><path class="cls-29" d="M263.86,292.29l-.21,8.43a2.93,2.93,0,0,0,2.91,3l48.11.55a2.93,2.93,0,0,0,3-2.92l0-8.84a2.94,2.94,0,0,0-2.93-2.94l-47.94-.14A2.93,2.93,0,0,0,263.86,292.29Z" transform="translate(-18.82 -12.99)"/><path class="cls-30" d="M274.42,315.53h0a1.43,1.43,0,0,0,1.41,1.52l29.56.17a1.42,1.42,0,0,0,1.43-1.42v-.08a1.41,1.41,0,0,0-1.42-1.43l-29.55-.09A1.43,1.43,0,0,0,274.42,315.53Z" transform="translate(-18.82 -12.99)"/><path class="cls-30" d="M274.39,324.64h0a1.44,1.44,0,0,0,1.42,1.52l29.55.17a1.44,1.44,0,0,0,1.44-1.42v-.08a1.43,1.43,0,0,0-1.42-1.43l-29.56-.09A1.43,1.43,0,0,0,274.39,324.64Z" transform="translate(-18.82 -12.99)"/><path class="cls-30" d="M274.37,333.75h0a1.42,1.42,0,0,0,1.41,1.52l29.56.17a1.43,1.43,0,0,0,1.43-1.42v-.08a1.42,1.42,0,0,0-1.42-1.43l-29.56-.09A1.42,1.42,0,0,0,274.37,333.75Z" transform="translate(-18.82 -12.99)"/><path class="cls-31" d="M263.18,238.16c0-.66,0-1.33,0-2s0-1.49,0-2.24c0-1,0-2.1,0-3.16a.69.69,0,0,1,.68-.66H264c.7,0,1.41,0,2.11,0,1.48,0,3,0,4.44,0l13.43,0c5.19,0,10.38,0,15.58.05l12.84,0,5.36,0a.65.65,0,0,1,.65.66c0,1,0,2.11,0,3.16a1.92,1.92,0,0,1,0,.24c0,1.34,0,2.67.06,4Z" transform="translate(-18.82 -12.99)"/><text class="cls-32" transform="translate(248.52 288.53) rotate(0.27)"><tspan class="cls-33">C</tspan><tspan x="6.67" y="0">OVID-19</tspan></text><path class="cls-23" d="M260.57,233.91h5.2l7.46,0c4.66,0,9.31-.09,14-.11q5.16,0,10.3,0c5.62.08,11.24.26,16.88.29l4.08,0h1.71c1,0,2.12.08,3.16,0a4.59,4.59,0,0,0,2.94-1.25,5.11,5.11,0,0,0,1.1-1.51c1.9-4.06,1.79-9.07,1.46-13.44a5.49,5.49,0,0,0-.07-.72,7.56,7.56,0,0,0-4.41-6.22c-5.45-2.61-12.1-1.29-17.9-1.29-6.28,0-12.57,0-18.87,0-1.88,0-3.78,0-5.67,0q-6.31,0-12.66.07c-3.55,0-8.14-.66-11.51.67a8,8,0,0,0-3.72,3.35c-1.26,2.16-1.09,4.76-1,7.17a51.7,51.7,0,0,0,.7,7.85,7.93,7.93,0,0,0,1.48,3.55,3.94,3.94,0,0,0,.84.79C257.33,234.06,259,233.92,260.57,233.91Z" transform="translate(-18.82 -12.99)"/><path class="cls-27" d="M332.12,279.15a53.08,53.08,0,0,0-2.28-12.87,40.34,40.34,0,0,0-3.21-7.31c-.91-1.72-1.9-3.41-2.89-5.09-1.14-2-2.39-3.92-3.51-5.91a10.25,10.25,0,0,1-1.44-4.31c-.18-1.77-.25-3.55-.28-5.33,0-1.33-.05-2.66-.06-4a1.92,1.92,0,0,0,0-.24h1.71c1,0,2.12.08,3.16,0a4.59,4.59,0,0,0,2.94-1.25,5.11,5.11,0,0,0,1.1-1.51c1.9-4.06,1.79-9.07,1.46-13.44a5.49,5.49,0,0,0-.07-.72,7.56,7.56,0,0,0-4.41-6.22c-5.45-2.61-12.1-1.29-17.9-1.29H293V370.34c1.09,0,2.18.05,3.28.06a143,143,0,0,0,17.19-.84,56.21,56.21,0,0,0,7.86-1.39,16.89,16.89,0,0,0,5.53-2.32,9.53,9.53,0,0,0,3.19-5.15,44.41,44.41,0,0,0,1.47-8.48,168.74,168.74,0,0,0,.45-17c-.05-5.54.09-11.11.14-16.66q.09-10.93.09-21.87c0-3.2,0-6.37,0-9.55C332.22,284.5,332.27,281.81,332.12,279.15Z" transform="translate(-18.82 -12.99)"/><path class="cls-3" d="M57.19,250.48a1.87,1.87,0,0,0-2.24-1,2.22,2.22,0,0,0-1.05.59c-.17-.12-.37-.21-.52-.3l-1.05-.55c-.62-.32-1.25-.61-1.88-.91.15-.32.3-.65.43-1A16,16,0,0,0,52,243.64,9.12,9.12,0,0,0,52,241h0c.53-.13,1-.23,1.58-.34s1-.2,1.52-.32c.33-.07.66-.18,1-.28.1.15.2.29.31.43a4.71,4.71,0,0,0,1.81,1.41,2.53,2.53,0,0,0,1.71.19,2.15,2.15,0,0,0,1.18-1,5.19,5.19,0,0,0,.3-3.6,3.23,3.23,0,0,0-2.92-2.66,2.66,2.66,0,0,0-2,.95,3.9,3.9,0,0,0-.86,2.48,4.26,4.26,0,0,0-.82.12l-1.28.26c-.69.15-1.38.3-2.07.38a10.8,10.8,0,0,0-1.26-2.52,14.14,14.14,0,0,0-2.58-2.66.23.23,0,0,0-.13-.22l-.51-.29-1-.8a8.3,8.3,0,0,0,.91-1.84c1.26.19,2.65.22,3.49-.9a2.49,2.49,0,0,0-.59-3.32c-1.43-1.28-4.65-1.89-5.33.51a2.54,2.54,0,0,0,1.52,2.83,3.82,3.82,0,0,0-.35.59l-.45.85c-.16.29-.31.57-.45.86a10.67,10.67,0,0,0-5-1.26,9.62,9.62,0,0,0-1.43.15.24.24,0,0,1,0-.08,14,14,0,0,1-.27-1.44c0-.46-.12-.93-.2-1.39,0-.15-.05-.3-.08-.46l.13,0a1.74,1.74,0,0,0,.8-.67A2.75,2.75,0,0,0,39,226a2.2,2.2,0,0,0,0-1,2,2,0,0,0-2-1.29A2.44,2.44,0,0,0,34.48,226a1.57,1.57,0,0,0,.92,1.4,2.23,2.23,0,0,0,.84.22c0,.09,0,.19,0,.29.08.55.19,1.08.32,1.61l.39,1.64a.57.57,0,0,1,0,.14,11.44,11.44,0,0,0-4,2.12l-.44.37c-.2-.18-.39-.36-.57-.55l-.94-.92a1.71,1.71,0,0,0,0-2,2.14,2.14,0,0,0-1-.81,1.88,1.88,0,0,0-1.36,0A2.49,2.49,0,0,0,27.12,232a1.86,1.86,0,0,0,.6,1,3,3,0,0,0,1,.59,1.93,1.93,0,0,0,1.46-.08c.19.23.38.46.58.68s.43.47.66.69a12.67,12.67,0,0,0-2.6,4.35l-1.09-.05a13.48,13.48,0,0,1-2.1-.22,3.63,3.63,0,0,0-1.3-3.37,2.94,2.94,0,0,0-3.61-.39,4.57,4.57,0,0,0-1.89,3.32c-.16,1.6.6,3.78,2.32,4.22a4,4,0,0,0,2.48-.36A2.64,2.64,0,0,0,25,241.24c.34.07.67.11,1,.15l1.77.19.55,0a11.37,11.37,0,0,0,.51,4.77c.1.31.22.61.34.9-1.15.58-2.27,1.21-3.39,1.84a2.7,2.7,0,0,0-.58.36,2.52,2.52,0,0,0-2.7-.91,2.67,2.67,0,0,0-1.75,2,3.21,3.21,0,0,0,1,3c.79.76,2.27,1.59,3.35.89a2.78,2.78,0,0,0,1-1.79,5.12,5.12,0,0,0,.17-1.83A32.69,32.69,0,0,1,30,248.87a12.51,12.51,0,0,0,5.57,4.75l0,.06c-.14.43-1.14,3.46-1.2,3.58l0,.12c-2-1-4.44,1.41-3.25,3.42a4,4,0,0,0,2.89,1.81c1.18.15,2.74,0,3.46-1.1a1.8,1.8,0,0,0,.13-1.82,4.21,4.21,0,0,0-1.68-1.56,6.49,6.49,0,0,0,.26-.74c.21-.64.42-1.27.62-1.91.13-.4.26-.82.39-1.24a19.58,19.58,0,0,0,2.29.4,11.2,11.2,0,0,0,3.37-.19c.09.39.91,3.28,1,3.48a2.62,2.62,0,0,0-1.21,2.22,3,3,0,0,0,1.13,2.52,3.13,3.13,0,0,0,3.17,0,2.51,2.51,0,0,0,1.3-2.71,3.11,3.11,0,0,0-2.79-2.41c-.06-.16-.86-3.16-1-3.56a11.86,11.86,0,0,0,2-1,10.53,10.53,0,0,0,3.29-3.32c.53.34,1,.69,1.59,1,.35.21.7.43,1,.63.19.11.38.23.57.33l.31.13a1.54,1.54,0,0,0,.7,2.09,2.45,2.45,0,0,0,2.55-.25A2.84,2.84,0,0,0,57.19,250.48ZM30.85,232.6s0,0-.05,0h0Z" transform="translate(-18.82 -12.99)"/><path class="cls-20" d="M35.22,242.58l-.09-.07a2.47,2.47,0,0,1-.28-.28,2.21,2.21,0,0,1,.36-3,2.34,2.34,0,0,1,3.41,1.07,1,1,0,0,1,.06.42c0,.09,0,.18,0,.28a2.56,2.56,0,0,1-.17.6A2.08,2.08,0,0,1,35.22,242.58Z" transform="translate(-18.82 -12.99)"/><path class="cls-23" d="M38.62,241.57s-4.51-4-4.42-4.71a1.75,1.75,0,0,1,1.91-1.59c.82.27,3.46,4.83,3.29,5.52A1,1,0,0,1,38.62,241.57Z" transform="translate(-18.82 -12.99)"/><path class="cls-23" d="M35.22,242.58l-.09-.07a2.47,2.47,0,0,1-.28-.28,2,2,0,0,1,.55-1.76,2.44,2.44,0,0,1,2.36-.57,1.65,1.65,0,0,1,.92.79c0,.09,0,.18,0,.28a2.56,2.56,0,0,1-.17.6A2.08,2.08,0,0,1,35.22,242.58Z" transform="translate(-18.82 -12.99)"/><path class="cls-20" d="M43.91,245.22H44a2.33,2.33,0,0,0,.38-.08,2.2,2.2,0,0,0,1.43-2.7c-.44-1.42-2.27-1.71-3.42-1a.87.87,0,0,0-.28.31A1.46,1.46,0,0,0,42,242a2.42,2.42,0,0,0-.2.59A2.08,2.08,0,0,0,43.91,245.22Z" transform="translate(-18.82 -12.99)"/><path class="cls-23" d="M41.69,242.47s6-.75,6.31-1.38a1.73,1.73,0,0,0-.68-2.39c-.82-.24-5.58,2-5.84,2.68A1,1,0,0,0,41.69,242.47Z" transform="translate(-18.82 -12.99)"/><path class="cls-23" d="M43.91,245.22H44a2.33,2.33,0,0,0,.38-.08,1.94,1.94,0,0,0,.55-1.76,2.42,2.42,0,0,0-1.62-1.81,1.63,1.63,0,0,0-1.2.14A1.46,1.46,0,0,0,42,242a2.42,2.42,0,0,0-.2.59A2.08,2.08,0,0,0,43.91,245.22Z" transform="translate(-18.82 -12.99)"/><path class="cls-23" d="M36.48,245.19s-2.41,4.91,1,6.15,4.39-5.12,4.39-5.12Z" transform="translate(-18.82 -12.99)"/><path class="cls-2" d="M39.94,249.51a2.71,2.71,0,0,0-3,.21,2.45,2.45,0,0,0-.64.76,2.74,2.74,0,0,0,1.25.86,2.45,2.45,0,0,0,3-1.23A1.91,1.91,0,0,0,39.94,249.51Z" transform="translate(-18.82 -12.99)"/><path class="cls-34" d="M110.92,80.51a1.79,1.79,0,0,0,.16.59,1.58,1.58,0,0,0,2.16.72l2.1,2.41A10.82,10.82,0,0,0,112,89.3l-3.36-.55a5.43,5.43,0,0,0-.89-1.86,2.06,2.06,0,0,0-1.82-.79,2.59,2.59,0,0,0-1.75,1.7,4.35,4.35,0,0,0-.39,2.32A2.4,2.4,0,0,0,105.06,92c1.26.56,2.77-.41,3.28-1.69l3.38.7A11.6,11.6,0,0,0,114,97.61l-1.27,1.12c-1-.62-2.42-.94-3.25-.11s-.37,2.62.62,3.52a2.56,2.56,0,0,0,2.72.71,2.08,2.08,0,0,0,.35-3.15l1.64-1.37a8.48,8.48,0,0,0,4.6,2.83l-.6,2.65a1.87,1.87,0,0,0-1.61,2.33,1.83,1.83,0,0,0,2.66.92,1.8,1.8,0,0,0,0-2.79l.48-3a9.86,9.86,0,0,0,4.14-.53l.67,1.53a1.77,1.77,0,0,0,.33,2.74,1.84,1.84,0,0,0,2.53-1.2,1.92,1.92,0,0,0-1.78-2.2l-.52-1.38a10.86,10.86,0,0,0,3.3-2.52,13,13,0,0,1,2.33,1.17,3.32,3.32,0,0,0-.19,2.67,2.69,2.69,0,0,0,2,1.68,3.12,3.12,0,0,0,2.71-1.12,3.54,3.54,0,0,0,.5-4.08,2.61,2.61,0,0,0-3.8-.64l-2.44-1.35a9.64,9.64,0,0,0,1.08-4.56l3.72-.45A1.94,1.94,0,0,0,137,92.56a2.36,2.36,0,0,0,2-1.74,3,3,0,0,0-.62-2.62,2.08,2.08,0,0,0-1.45-.85c-1.19-.06-1.92,1.26-2.36,2.37l-3.46.34a10.47,10.47,0,0,0-2.78-5.32l2.11-2.46a2.07,2.07,0,0,0,3.21-2.57A4.18,4.18,0,0,0,131,77.88a1.93,1.93,0,0,0-2.3,1.28,2.8,2.8,0,0,0,.76,2.06c-.72.85-1.43,1.71-2.14,2.57a10.65,10.65,0,0,0-4.26-1.9l.3-3a2.31,2.31,0,1,0-1.32-.14l-.33,3a8.89,8.89,0,0,0-5.37,1.65l-2-2.67a1.53,1.53,0,0,0-.36-2.19,2,2,0,0,0-2.34.22A2.15,2.15,0,0,0,110.92,80.51Zm14.55,21.68s0,0,0,0h0Z" transform="translate(-18.82 -12.99)"/><path class="cls-23" d="M117.58,89.19c-.83,1.49-1.94,6.42-1,6.64s2.24-6.38,2-6.82C118.24,88.3,117.71,89,117.58,89.19Z" transform="translate(-18.82 -12.99)"/><path class="cls-23" d="M114.45,91.3c1.7-.08,6.66,1.08,6.45,2s-6.64-.51-7-1.2S114.17,91.32,114.45,91.3Z" transform="translate(-18.82 -12.99)"/><path class="cls-23" d="M124.11,84.92c-.81,1.5-1.87,6.44-1,6.64s2.17-6.4,2-6.83C124.76,84,124.24,84.68,124.11,84.92Z" transform="translate(-18.82 -12.99)"/><path class="cls-23" d="M121,87.06c1.7-.1,6.67,1,6.47,1.91s-6.64-.44-7-1.13S120.72,87.08,121,87.06Z" transform="translate(-18.82 -12.99)"/><path class="cls-3" d="M120.45,96.82s2,3.94,3.41,3.18c2.19-1.14-.65-5-.65-5Z" transform="translate(-18.82 -12.99)"/><path class="cls-23" d="M126.71,92.45s-7,4.24-6.74,4.73,7.5-4.2,7.37-4.8C127.26,92,127,92.23,126.71,92.45Z" transform="translate(-18.82 -12.99)"/><path class="cls-34" d="M29.39,330.11a2.08,2.08,0,0,0,.19.73,2,2,0,0,0,2.69.89l2.6,3A13.25,13.25,0,0,0,30.68,341l-4.17-.68A6.51,6.51,0,0,0,25.4,338a2.56,2.56,0,0,0-2.25-1A3.24,3.24,0,0,0,21,339.16,5.29,5.29,0,0,0,20.5,342a3,3,0,0,0,1.62,2.32c1.56.7,3.44-.52,4.07-2.1l4.19.87a14.31,14.31,0,0,0,2.8,8.19l-1.57,1.4c-1.23-.78-3-1.17-4-.15-1.17,1.17-.45,3.26.78,4.38a3.19,3.19,0,0,0,3.37.87c1.37-.68,1.46-2.79.43-3.91l2-1.69a10.43,10.43,0,0,0,5.7,3.5c-.25,1.1-.5,2.2-.74,3.29a2.33,2.33,0,0,0-2,2.89,2.29,2.29,0,0,0,3.3,1.15,2.24,2.24,0,0,0,.07-3.47c.2-1.22.39-2.44.59-3.66a12.48,12.48,0,0,0,5.14-.67l.83,1.91a2.18,2.18,0,0,0,.41,3.39,2.28,2.28,0,0,0,3.13-1.48,2.37,2.37,0,0,0-2.2-2.73c-.22-.58-.43-1.15-.65-1.72a13.29,13.29,0,0,0,4.09-3.12,16.27,16.27,0,0,1,2.89,1.45,4.12,4.12,0,0,0-.23,3.31A3.33,3.33,0,0,0,57,358.33a3.83,3.83,0,0,0,3.36-1.39,4.36,4.36,0,0,0,.62-5.05,3.23,3.23,0,0,0-4.71-.8l-3-1.67a12.06,12.06,0,0,0,1.34-5.65l4.61-.57a2.4,2.4,0,0,0,2.55,1.85,2.92,2.92,0,0,0,2.43-2.16,3.72,3.72,0,0,0-.77-3.24,2.53,2.53,0,0,0-1.79-1c-1.48-.07-2.39,1.55-2.93,2.93l-4.28.42a13.26,13.26,0,0,0-3.45-6.6l2.61-3.05a2.67,2.67,0,0,0,3.58.06,2.7,2.7,0,0,0,.4-3.24,5.2,5.2,0,0,0-3.26-2.27,2.41,2.41,0,0,0-2.86,1.58,3.57,3.57,0,0,0,.94,2.56l-2.65,3.18a13,13,0,0,0-5.28-2.34c.13-1.23.25-2.47.38-3.7a2.86,2.86,0,1,0-1.65-.17c-.13,1.23-.27,2.47-.41,3.7a11.06,11.06,0,0,0-6.65,2l-2.47-3.3a1.89,1.89,0,0,0-.44-2.71,2.48,2.48,0,0,0-2.9.27A2.66,2.66,0,0,0,29.39,330.11Zm18,26.89,0,0h0Z" transform="translate(-18.82 -12.99)"/><path class="cls-23" d="M37.64,340.88c-1,1.85-2.4,8-1.28,8.23s2.77-7.91,2.52-8.46C38.47,339.77,37.81,340.58,37.64,340.88Z" transform="translate(-18.82 -12.99)"/><path class="cls-23" d="M33.76,343.5c2.11-.1,8.26,1.34,8,2.45s-8.23-.63-8.69-1.49S33.42,343.51,33.76,343.5Z" transform="translate(-18.82 -12.99)"/><path class="cls-23" d="M45.74,335.58c-1,1.86-2.32,8-1.21,8.24s2.7-7.94,2.44-8.48C46.55,334.46,45.9,335.28,45.74,335.58Z" transform="translate(-18.82 -12.99)"/><path class="cls-23" d="M41.89,338.24c2.1-.13,8.26,1.25,8,2.37s-8.24-.55-8.71-1.41S41.54,338.25,41.89,338.24Z" transform="translate(-18.82 -12.99)"/><path class="cls-3" d="M41.2,350.34s2.43,4.88,4.24,3.94c2.71-1.41-.81-6.22-.81-6.22Z" transform="translate(-18.82 -12.99)"/><path class="cls-23" d="M49,344.91s-8.72,5.27-8.36,5.87,9.31-5.21,9.15-5.95C49.64,344.34,49.28,344.65,49,344.91Z" transform="translate(-18.82 -12.99)"/><path class="cls-34" d="M440.19,177.9a2.47,2.47,0,0,0,.54.53,2,2,0,0,0,2.76-.61l3.77,1.23a13.27,13.27,0,0,0-.37,7.54L443,188.15a6.54,6.54,0,0,0-2.13-1.41,2.55,2.55,0,0,0-2.44.31,3.21,3.21,0,0,0-.78,2.93,5.4,5.4,0,0,0,1.06,2.71,3,3,0,0,0,2.58,1.16c1.7-.2,2.69-2.21,2.42-3.89l4-1.4a14.36,14.36,0,0,0,6.61,5.59c-.21.67-.42,1.34-.64,2-1.45,0-3.17.53-3.53,1.94-.41,1.61,1.28,3,2.9,3.36a3.18,3.18,0,0,0,3.35-1c.82-1.28-.18-3.15-1.64-3.57.3-.84.59-1.67.89-2.5a10.39,10.39,0,0,0,6.68.08l1.05,3.21a2.32,2.32,0,0,0-.23,3.5,2.27,2.27,0,0,0,3.41-.71,2.23,2.23,0,0,0-1.71-3L463.47,194a12.51,12.51,0,0,0,4.08-3.21l1.68,1.21a2.19,2.19,0,0,0,2.09,2.7,2.27,2.27,0,0,0,1.93-2.88,2.37,2.37,0,0,0-3.29-1.21l-1.43-1.14a13.52,13.52,0,0,0,1.91-4.78,15.78,15.78,0,0,1,3.22-.24,4.08,4.08,0,0,0,1.5,3,3.33,3.33,0,0,0,3.23.5,3.87,3.87,0,0,0,2.17-2.92,4.38,4.38,0,0,0-2.07-4.65,3.23,3.23,0,0,0-4.45,1.73l-3.45.12a11.84,11.84,0,0,0-1.75-5.54l3.67-2.85a2.42,2.42,0,0,0,3.14.28,2.93,2.93,0,0,0,1-3.1,3.76,3.76,0,0,0-2.33-2.4,2.61,2.61,0,0,0-2.07,0c-1.31.7-1.25,2.56-1,4l-3.46,2.55a13.15,13.15,0,0,0-6.34-3.89c.22-1.32.45-2.64.67-4a2.67,2.67,0,0,0,3.11-1.79,2.7,2.7,0,0,0-1.32-3,5.14,5.14,0,0,0-4-.28,2.4,2.4,0,0,0-1.64,2.82,3.46,3.46,0,0,0,2.12,1.71c-.22,1.37-.43,2.73-.65,4.1a13.13,13.13,0,0,0-5.73.69c-.52-1.12-1.05-2.24-1.57-3.37a2.87,2.87,0,1,0-1.5.7l1.54,3.39a11,11,0,0,0-4.66,5.17L444,176a1.89,1.89,0,0,0-1.77-2.1,2.48,2.48,0,0,0-2.35,1.71A2.67,2.67,0,0,0,440.19,177.9Zm29.27,13.83.05,0h0Z" transform="translate(-18.82 -12.99)"/><path class="cls-23" d="M452.8,182.91c.07,2.11,2,8.06,3.11,7.72s-1.67-8.21-2.17-8.55C452.94,181.54,452.79,182.57,452.8,182.91Z" transform="translate(-18.82 -12.99)"/><path class="cls-23" d="M450.81,187.15c1.76-1.17,7.77-3.09,8.13-2s-7.4,3.68-8.23,3.18S450.52,187.34,450.81,187.15Z" transform="translate(-18.82 -12.99)"/><path class="cls-23" d="M457,174.21c.09,2.11,2.1,8,3.19,7.69s-1.76-8.19-2.26-8.53C457.15,172.83,457,173.87,457,174.21Z" transform="translate(-18.82 -12.99)"/><path class="cls-23" d="M455.08,178.46c1.75-1.18,7.74-3.16,8.11-2.07s-7.36,3.75-8.2,3.26S454.8,178.66,455.08,178.46Z" transform="translate(-18.82 -12.99)"/><path class="cls-3" d="M460.71,189.21s4.59,2.94,5.65,1.21c1.61-2.61-3.88-4.92-3.88-4.92Z" transform="translate(-18.82 -12.99)"/><path class="cls-23" d="M464.58,180.57s-4.78,9-4.16,9.32,5.31-9.24,4.8-9.79C464.87,179.73,464.72,180.18,464.58,180.57Z" transform="translate(-18.82 -12.99)"/><path class="cls-3" d="M302,29.35a1.73,1.73,0,0,0-2.28.19,2.08,2.08,0,0,0-.59.95,5.37,5.37,0,0,0-.56,0l-1.11,0c-.65,0-1.3.06-1.95.09,0-.33,0-.66-.08-1a14.39,14.39,0,0,0-.76-3.5A8.88,8.88,0,0,0,293.44,24h0c.38-.34.76-.66,1.14-1s.74-.62,1.1-.95a8.59,8.59,0,0,0,.68-.67,3.61,3.61,0,0,0,.44.22,4.35,4.35,0,0,0,2.11.34,2.35,2.35,0,0,0,1.48-.61A2,2,0,0,0,300.9,20a4.79,4.79,0,0,0-1.36-3.08A3,3,0,0,0,296,16a2.47,2.47,0,0,0-1.18,1.65,3.66,3.66,0,0,0,.42,2.4,4.38,4.38,0,0,0-.62.47c-.32.26-.62.53-.93.79-.5.43-1,.86-1.53,1.24a9.89,9.89,0,0,0-2.15-1.5,13.2,13.2,0,0,0-3.31-1,.21.21,0,0,0-.2-.13h-.54l-1.21-.19a7.73,7.73,0,0,0-.08-1.92c1.11-.41,2.26-1,2.45-2.3a2.32,2.32,0,0,0-2-2.44c-1.75-.41-4.65.54-4.13,2.8a2.36,2.36,0,0,0,2.51,1.63,2.74,2.74,0,0,0,0,.64v.9c0,.31,0,.6,0,.9a10,10,0,0,0-4.69,1.23,9.42,9.42,0,0,0-1.1.77l-.06-.06a12.18,12.18,0,0,1-.85-1.05c-.26-.36-.52-.71-.79-1.05l-.27-.34.09-.09a1.73,1.73,0,0,0,.35-.9,2.59,2.59,0,0,0-.08-.92,2.05,2.05,0,0,0-.45-.85,1.86,1.86,0,0,0-2.18-.17,2.28,2.28,0,0,0-1.06,3,1.49,1.49,0,0,0,1.39.74,2.1,2.1,0,0,0,.78-.21l.16.23c.31.41.64.8,1,1.17l1.06,1.16.09.1a10.91,10.91,0,0,0-2.33,3.53c-.07.17-.13.34-.19.51-.24-.06-.48-.12-.72-.2l-1.18-.33a1.58,1.58,0,0,0-.94-1.64,2,2,0,0,0-1.2-.21,1.76,1.76,0,0,0-1.08.66,2.3,2.3,0,0,0-.12,2.73,1.77,1.77,0,0,0,.93.55,2.91,2.91,0,0,0,1.1,0,1.8,1.8,0,0,0,1.15-.72l.78.3.85.26a11.55,11.55,0,0,0-.17,4.72l-.92.45a12,12,0,0,1-1.81.76,3.39,3.39,0,0,0-2.58-2.17,2.73,2.73,0,0,0-3.12,1.3,4.26,4.26,0,0,0-.06,3.56c.59,1.38,2.18,2.82,3.78,2.41a3.65,3.65,0,0,0,1.88-1.4,2.54,2.54,0,0,0,.57-1.56c.31-.09.6-.2.9-.32l1.52-.65.48-.2a10.42,10.42,0,0,0,2.55,3.67c.22.21.45.4.69.59-.68,1-1.32,2-1.95,3a2.57,2.57,0,0,0-.31.55,2.37,2.37,0,0,0-2.62.47,2.5,2.5,0,0,0-.53,2.43,3,3,0,0,0,2.11,2c1,.27,2.57.28,3.14-.77a2.62,2.62,0,0,0,0-1.91,4.57,4.57,0,0,0-.68-1.57,29.92,29.92,0,0,1,2.2-3.29,11.66,11.66,0,0,0,6.68,1.4.11.11,0,0,1,0,.05c.08.42.62,3.34.63,3.47a.49.49,0,0,0,0,.12c-2,.08-3,3.14-1.13,4.25a3.7,3.7,0,0,0,3.18.18c1-.4,2.23-1.24,2.33-2.44a1.69,1.69,0,0,0-.7-1.55,3.89,3.89,0,0,0-2.08-.52,5.85,5.85,0,0,0-.12-.73c-.11-.61-.22-1.22-.35-1.83-.08-.39-.15-.79-.24-1.19a19.22,19.22,0,0,0,2.06-.7A10.42,10.42,0,0,0,292,39.06c.24.29,2.21,2.28,2.36,2.4a2.47,2.47,0,0,0,0,2.36,2.81,2.81,0,0,0,2.05,1.55A2.88,2.88,0,0,0,299,44a2.3,2.3,0,0,0-.15-2.79,2.91,2.91,0,0,0-3.36-.73c-.12-.09-2.12-2.19-2.4-2.47a10.25,10.25,0,0,0,1.21-1.72,9.91,9.91,0,0,0,1.2-4.19l1.75.12,1.15,0c.2,0,.4,0,.61,0a1.73,1.73,0,0,0,.32,0,1.44,1.44,0,0,0,1.5,1.4,2.31,2.31,0,0,0,2-1.35A2.67,2.67,0,0,0,302,29.35Zm-29.55-2.81h-.05v0Z" transform="translate(-18.82 -12.99)"/><path class="cls-20" d="M280.47,32.74l-.12,0a1.91,1.91,0,0,1-.34-.1A2.05,2.05,0,0,1,278.94,30a2.17,2.17,0,0,1,3.26-.65.84.84,0,0,1,.24.32c0,.07.07.15.1.24a2.75,2.75,0,0,1,.12.57A1.93,1.93,0,0,1,280.47,32.74Z" transform="translate(-18.82 -12.99)"/><path class="cls-23" d="M282.79,30.39s-5.49-1.25-5.73-1.87a1.61,1.61,0,0,1,.85-2.15c.79-.15,5,2.39,5.17,3A.93.93,0,0,1,282.79,30.39Z" transform="translate(-18.82 -12.99)"/><path class="cls-23" d="M280.47,32.74l-.12,0a1.91,1.91,0,0,1-.34-.1,1.85,1.85,0,0,1-.35-1.69,2.29,2.29,0,0,1,1.68-1.52,1.49,1.49,0,0,1,1.1.24c0,.07.07.15.1.24a2.75,2.75,0,0,1,.12.57A1.93,1.93,0,0,1,280.47,32.74Z" transform="translate(-18.82 -12.99)"/><path class="cls-20" d="M288.75,31l.1-.07a1.18,1.18,0,0,0,.27-.23,2.06,2.06,0,0,0,0-2.85,2.19,2.19,0,0,0-3.26.68.71.71,0,0,0-.09.38,1.22,1.22,0,0,0,0,.27,2.21,2.21,0,0,0,.11.57A1.94,1.94,0,0,0,288.75,31Z" transform="translate(-18.82 -12.99)"/><path class="cls-23" d="M285.7,29.75s4.56-3.29,4.54-4a1.63,1.63,0,0,0-1.63-1.65c-.78.17-3.66,4.15-3.57,4.81A.94.94,0,0,0,285.7,29.75Z" transform="translate(-18.82 -12.99)"/><path class="cls-23" d="M288.75,31l.1-.07a1.18,1.18,0,0,0,.27-.23,1.79,1.79,0,0,0-.34-1.68,2.24,2.24,0,0,0-2.13-.75,1.49,1.49,0,0,0-.92.64,1.22,1.22,0,0,0,0,.27,2.21,2.21,0,0,0,.11.57A1.94,1.94,0,0,0,288.75,31Z" transform="translate(-18.82 -12.99)"/><path class="cls-23" d="M282.66,34.31s.23,5.09,3.61,4.56,1.29-6.16,1.29-6.16Z" transform="translate(-18.82 -12.99)"/><path class="cls-2" d="M287.42,36.29A2.51,2.51,0,0,0,285,37.82a2.38,2.38,0,0,0-.18.91,2.67,2.67,0,0,0,1.41.14,2.27,2.27,0,0,0,1.91-2.36A1.77,1.77,0,0,0,287.42,36.29Z" transform="translate(-18.82 -12.99)"/><path class="cls-3" d="M68.1,55.6a1.85,1.85,0,0,0-1.95-1.49,2.22,2.22,0,0,0-1.15.34,5.59,5.59,0,0,0-.44-.42l-.9-.77c-.53-.46-1.08-.89-1.62-1.33.23-.27.44-.55.65-.85a15.36,15.36,0,0,0,1.91-3.34,8.93,8.93,0,0,0,.58-2.54h0l1.61,0c.52,0,1,0,1.55,0a8.71,8.71,0,0,0,1-.05c.06.17.13.33.2.5A4.76,4.76,0,0,0,71,47.5a2.55,2.55,0,0,0,1.62.58A2.15,2.15,0,0,0,74,47.36a5.23,5.23,0,0,0,1.13-3.43,3.24,3.24,0,0,0-2.24-3.26,2.68,2.68,0,0,0-2.12.47,4,4,0,0,0-1.4,2.21,4.73,4.73,0,0,0-.83-.07l-1.31,0c-.7,0-1.4,0-2.1-.11a10.62,10.62,0,0,0-.64-2.74,14.25,14.25,0,0,0-1.9-3.18.23.23,0,0,0-.07-.24l-.43-.4-.83-1A8.67,8.67,0,0,0,62.58,34c1.18.47,2.52.82,3.61-.08a2.49,2.49,0,0,0,.18-3.36c-1.09-1.57-4.09-2.91-5.3-.73a2.54,2.54,0,0,0,.82,3.1,4.34,4.34,0,0,0-.47.49l-.64.73-.63.73a10.76,10.76,0,0,0-4.62-2.39,11.4,11.4,0,0,0-1.43-.18V32.2a11.89,11.89,0,0,1,.07-1.46c0-.47.09-.93.12-1.4a3.59,3.59,0,0,0,0-.47h.14a1.79,1.79,0,0,0,.92-.46,2.59,2.59,0,0,0,.6-.8,2.18,2.18,0,0,0,.26-1,2,2,0,0,0-1.61-1.71,2.46,2.46,0,0,0-3,1.62,1.6,1.6,0,0,0,.58,1.58,2.27,2.27,0,0,0,.77.4l0,.3a14.89,14.89,0,0,0-.06,1.64c0,.56,0,1.12,0,1.68v.14a11.7,11.7,0,0,0-4.4,1.14l-.52.26c-.15-.22-.29-.44-.43-.67s-.46-.74-.7-1.11a1.7,1.7,0,0,0,.44-2,2.17,2.17,0,0,0-.81-1,1.86,1.86,0,0,0-1.34-.26,2.52,2.52,0,0,0-2.06,2.09,1.91,1.91,0,0,0,.36,1.11,2.85,2.85,0,0,0,.85.81,1.94,1.94,0,0,0,1.43.26c.13.27.26.53.41.8s.31.55.49.81a12.62,12.62,0,0,0-3.53,3.64L42,37.84a12.07,12.07,0,0,1-2-.7,3.63,3.63,0,0,0-.49-3.58,3,3,0,0,0-3.42-1.21,4.59,4.59,0,0,0-2.6,2.8c-.53,1.52-.29,3.81,1.28,4.64a3.9,3.9,0,0,0,2.5.23,2.68,2.68,0,0,0,1.57-.83,8.55,8.55,0,0,0,1,.38l1.67.59.53.18a11.16,11.16,0,0,0-.6,4.76c0,.32.07.64.12,1-1.25.29-2.49.64-3.73,1a2.87,2.87,0,0,0-.64.22,2.52,2.52,0,0,0-2.42-1.51,2.72,2.72,0,0,0-2.17,1.56,3.22,3.22,0,0,0,.27,3.08c.6.93,1.84,2.07,3.05,1.65a2.82,2.82,0,0,0,1.38-1.52,5.05,5.05,0,0,0,.59-1.74,32.11,32.11,0,0,1,4.11-1,12.53,12.53,0,0,0,4.32,5.92l0,0c-.24.39-1.91,3.1-2,3.21a.61.61,0,0,1-.07.1c-1.68-1.4-4.64.35-3.95,2.57A4,4,0,0,0,42.67,62c1.11.42,2.67.62,3.61-.27A1.8,1.8,0,0,0,46.83,60a4.18,4.18,0,0,0-1.27-1.9,5.79,5.79,0,0,0,.42-.67c.35-.57.7-1.13,1-1.71.22-.36.45-.73.66-1.12a19.15,19.15,0,0,0,2.14.92,11.16,11.16,0,0,0,3.33.59c0,.4.13,3.4.16,3.61a2.66,2.66,0,0,0-1.69,1.88,3,3,0,0,0,.52,2.72,3.12,3.12,0,0,0,3.08.73,2.48,2.48,0,0,0,1.89-2.33,3.14,3.14,0,0,0-2.16-3c0-.16-.11-3.27-.13-3.69a10.61,10.61,0,0,0,6.17-3c.43.46.86.92,1.3,1.36s.58.58.88.86l.48.45a2.83,2.83,0,0,0,.28.2,1.53,1.53,0,0,0,.19,2.19,2.44,2.44,0,0,0,2.54.35A2.83,2.83,0,0,0,68.1,55.6ZM46.59,32.13l0,0h0Z" transform="translate(-18.82 -12.99)"/><path class="cls-20" d="M48.55,42.86l-.08-.1a1.38,1.38,0,0,1-.2-.33,2.2,2.2,0,0,1,1-2.87,2.33,2.33,0,0,1,3.06,1.83.8.8,0,0,1,0,.42c0,.09-.06.18-.09.27a2.26,2.26,0,0,1-.32.54A2.07,2.07,0,0,1,48.55,42.86Z" transform="translate(-18.82 -12.99)"/><path class="cls-23" d="M52.08,42.66s-3.46-4.94-3.22-5.61A1.75,1.75,0,0,1,51.09,36c.74.45,2.26,5.49,1.94,6.13A1,1,0,0,1,52.08,42.66Z" transform="translate(-18.82 -12.99)"/><path class="cls-23" d="M48.55,42.86l-.08-.1a1.38,1.38,0,0,1-.2-.33,2,2,0,0,1,.94-1.59,2.45,2.45,0,0,1,2.43,0,1.69,1.69,0,0,1,.7,1c0,.09-.06.18-.09.27a2.26,2.26,0,0,1-.32.54A2.07,2.07,0,0,1,48.55,42.86Z" transform="translate(-18.82 -12.99)"/><path class="cls-20" d="M56.39,47.43l.12,0a2.55,2.55,0,0,0,.39,0,2.21,2.21,0,0,0,2-2.31c-.1-1.48-1.82-2.19-3.08-1.8a.88.88,0,0,0-.35.24,2,2,0,0,0-.19.21,2.65,2.65,0,0,0-.32.54A2.08,2.08,0,0,0,56.39,47.43Z" transform="translate(-18.82 -12.99)"/><path class="cls-23" d="M54.86,44.23s6,.66,6.46.12a1.75,1.75,0,0,0-.1-2.49c-.75-.42-5.9.67-6.3,1.26A1,1,0,0,0,54.86,44.23Z" transform="translate(-18.82 -12.99)"/><path class="cls-23" d="M56.39,47.43l.12,0a2.55,2.55,0,0,0,.39,0,2,2,0,0,0,.94-1.59,2.43,2.43,0,0,0-1.16-2.13,1.6,1.6,0,0,0-1.2-.15,2,2,0,0,0-.19.21,2.65,2.65,0,0,0-.32.54A2.08,2.08,0,0,0,56.39,47.43Z" transform="translate(-18.82 -12.99)"/><path class="cls-23" d="M49.17,45.68s-3.48,4.22-.4,6.23,5.45-4,5.45-4Z" transform="translate(-18.82 -12.99)"/><path class="cls-2" d="M51.54,50.68a2.7,2.7,0,0,0-3-.49,2.48,2.48,0,0,0-.8.59,2.77,2.77,0,0,0,1,1.13A2.45,2.45,0,0,0,52,51.4,2.29,2.29,0,0,0,51.54,50.68Z" transform="translate(-18.82 -12.99)"/><path class="cls-3" d="M442.71,238.69a1.66,1.66,0,0,0-2.17.37,1.92,1.92,0,0,0-.49,1,4.41,4.41,0,0,0-.54,0l-1.06.11c-.62.07-1.25.16-1.87.25,0-.32-.09-.63-.16-.95a13.58,13.58,0,0,0-1-3.3,8.37,8.37,0,0,0-1.32-1.95h0c.33-.35.67-.7,1-1l1-1a6.73,6.73,0,0,0,.59-.71,4.17,4.17,0,0,0,2.5.33,2.3,2.3,0,0,0,1.38-.7,2,2,0,0,0,.38-1.36,4.69,4.69,0,0,0-1.56-2.84,2.91,2.91,0,0,0-3.52-.54,2.42,2.42,0,0,0-1,1.69,3.47,3.47,0,0,0,.6,2.27,3.9,3.9,0,0,0-.56.5l-.83.84c-.44.45-.88.9-1.36,1.31a9.64,9.64,0,0,0-2.2-1.26,12.41,12.41,0,0,0-3.25-.7.22.22,0,0,0-.21-.11l-.52,0-1.18-.08a8,8,0,0,0-.23-1.83c1-.49,2.08-1.16,2.16-2.42a2.23,2.23,0,0,0-2.09-2.18c-1.71-.25-4.43.9-3.74,3a2.29,2.29,0,0,0,2.55,1.36,2.47,2.47,0,0,0,0,.61c0,.29.05.58.08.87s.06.58.1.86a9.73,9.73,0,0,0-4.41,1.57,7.91,7.91,0,0,0-1,.83l-.06-.06a10.1,10.1,0,0,1-.91-.94c-.27-.32-.56-.63-.84-.94l-.29-.31.08-.09a1.63,1.63,0,0,0,.26-.89,2.25,2.25,0,0,0-.16-.88,1.88,1.88,0,0,0-.49-.78,1.8,1.8,0,0,0-2.11,0,2.19,2.19,0,0,0-.77,3,1.42,1.42,0,0,0,1.39.59,1.88,1.88,0,0,0,.73-.26l.18.21c.33.36.68.71,1,1l1.11,1,.09.09a10.4,10.4,0,0,0-1.95,3.58c-.05.17-.1.34-.14.5-.24,0-.47-.07-.71-.12l-1.16-.22a1.54,1.54,0,0,0-1-1.51,1.91,1.91,0,0,0-1.18-.1,1.66,1.66,0,0,0-1,.72,2.24,2.24,0,0,0,.11,2.64,1.62,1.62,0,0,0,.94.44,2.37,2.37,0,0,0,1.06-.06,1.74,1.74,0,0,0,1.05-.78c.25.08.51.16.77.22s.55.13.83.18a11.25,11.25,0,0,0,.23,4.55l-.85.51a11.17,11.17,0,0,1-1.68.88,3.26,3.26,0,0,0-2.66-1.88,2.63,2.63,0,0,0-2.88,1.51,4.12,4.12,0,0,0,.23,3.43c.68,1.27,2.33,2.53,3.83,2a3.57,3.57,0,0,0,1.69-1.5,2.41,2.41,0,0,0,.42-1.54,9.1,9.1,0,0,0,.84-.39l1.41-.74.44-.23a10.22,10.22,0,0,0,2.75,3.31c.23.18.47.35.71.51-.57,1-1.1,2-1.63,3.07a2.37,2.37,0,0,0-.25.55,2.29,2.29,0,0,0-2.48.66,2.42,2.42,0,0,0-.3,2.38,2.86,2.86,0,0,0,2.18,1.72c1,.18,2.5.06,3-1a2.51,2.51,0,0,0-.15-1.84,4.43,4.43,0,0,0-.78-1.45,28.55,28.55,0,0,1,1.84-3.34,11.21,11.21,0,0,0,6.54.79v.05c.11.4.86,3.16.89,3.29a.36.36,0,0,0,0,.1c-1.95.25-2.62,3.27-.74,4.18a3.59,3.59,0,0,0,3.07-.08c1-.48,2.05-1.37,2-2.54a1.62,1.62,0,0,0-.8-1.43,3.74,3.74,0,0,0-2-.33c0-.24-.11-.46-.17-.69-.16-.58-.32-1.16-.49-1.73-.11-.37-.21-.75-.33-1.12a19.31,19.31,0,0,0,1.92-.85,10.1,10.1,0,0,0,2.43-1.82c.26.25,2.31,2,2.47,2.11a2.37,2.37,0,0,0,.2,2.27,2.67,2.67,0,0,0,2.09,1.32A2.79,2.79,0,0,0,441,253a2.26,2.26,0,0,0-.37-2.68,2.82,2.82,0,0,0-3.29-.42c-.12-.08-2.22-1.93-2.51-2.17a10.61,10.61,0,0,0,1-1.76,9.66,9.66,0,0,0,.81-4.12c.56,0,1.13,0,1.69,0l1.11,0c.19,0,.39,0,.58-.05l.31,0a1.39,1.39,0,0,0,1.56,1.22,2.24,2.24,0,0,0,1.79-1.46A2.57,2.57,0,0,0,442.71,238.69Zm-28.61-.28h-.05v0Z" transform="translate(-18.82 -12.99)"/><path class="cls-20" d="M422.34,243.71h-.11a1.28,1.28,0,0,1-.34-.07,2,2,0,0,1-1.25-2.45,2.11,2.11,0,0,1,3.09-.89.87.87,0,0,1,.25.28l.12.23a2.57,2.57,0,0,1,.16.54A1.86,1.86,0,0,1,422.34,243.71Z" transform="translate(-18.82 -12.99)"/><path class="cls-23" d="M424.38,241.27s-5.37-.76-5.66-1.33a1.56,1.56,0,0,1,.64-2.14c.75-.21,5,1.88,5.22,2.49A.91.91,0,0,1,424.38,241.27Z" transform="translate(-18.82 -12.99)"/><path class="cls-23" d="M422.34,243.71h-.11a1.28,1.28,0,0,1-.34-.07,1.76,1.76,0,0,1-.47-1.59,2.16,2.16,0,0,1,1.49-1.6,1.45,1.45,0,0,1,1.07.13l.12.23a2.57,2.57,0,0,1,.16.54A1.86,1.86,0,0,1,422.34,243.71Z" transform="translate(-18.82 -12.99)"/><path class="cls-20" d="M430.15,241.36l.09-.06a1.48,1.48,0,0,0,.25-.25,2,2,0,0,0-.28-2.73,2.1,2.1,0,0,0-3.07.92.8.8,0,0,0-.06.37,1.22,1.22,0,0,0,0,.26,2.07,2.07,0,0,0,.15.54A1.86,1.86,0,0,0,430.15,241.36Z" transform="translate(-18.82 -12.99)"/><path class="cls-23" d="M427.12,240.41s4.11-3.54,4-4.17a1.57,1.57,0,0,0-1.7-1.46c-.73.23-3.18,4.28-3,4.91A.91.91,0,0,0,427.12,240.41Z" transform="translate(-18.82 -12.99)"/><path class="cls-23" d="M430.15,241.36l.09-.06a1.48,1.48,0,0,0,.25-.25,1.76,1.76,0,0,0-.46-1.59,2.18,2.18,0,0,0-2.12-.54,1.44,1.44,0,0,0-.83.69,1.22,1.22,0,0,0,0,.26,2.07,2.07,0,0,0,.15.54A1.86,1.86,0,0,0,430.15,241.36Z" transform="translate(-18.82 -12.99)"/><path class="cls-23" d="M424.58,245s.63,4.87,3.84,4.08.74-6,.74-6Z" transform="translate(-18.82 -12.99)"/><path class="cls-2" d="M429.31,246.55a1.79,1.79,0,1,0-.89,2.57,2.18,2.18,0,0,0,1.64-2.42A1.71,1.71,0,0,0,429.31,246.55Z" transform="translate(-18.82 -12.99)"/><path class="cls-2" d="M174.29,32.55a2,2,0,0,0-2.07-.11,1.25,1.25,0,0,0-.5,1.7l-.25.12-.44.28c-.28.18-.56.36-.83.55s-.83.58-1.25.87a8.39,8.39,0,0,0-2.76-2.57,9.45,9.45,0,0,0-1.66-.74c.08-.33.63-2.78.68-2.91a2.51,2.51,0,0,0,2.17-2,2,2,0,0,0-1.14-2.14,2.48,2.48,0,0,0-2.55.1,2.41,2.41,0,0,0-.83,2.07,2.12,2.12,0,0,0,1,1.75c-.05.16-.63,2.52-.68,2.84a8.62,8.62,0,0,0-2.73,0,18.58,18.58,0,0,0-1.83.39c-.12-.33-.24-.66-.35-1-.19-.5-.37-1-.56-1.51a6.07,6.07,0,0,0-.24-.59,3.43,3.43,0,0,0,1.31-1.31,1.45,1.45,0,0,0-.17-1.46,2.86,2.86,0,0,0-2.82-.78,3.22,3.22,0,0,0-2.28,1.55c-.89,1.66,1.19,3.5,2.74,2.65a.36.36,0,0,0,0,.09c0,.1,1,2.51,1.08,2.86l0,0a10.15,10.15,0,0,0-4.34,4A27.22,27.22,0,0,1,150,35.78a4.06,4.06,0,0,0-.2-1.47,2.27,2.27,0,0,0-.86-1.42c-.89-.52-2.05.19-2.67.84a2.6,2.6,0,0,0-.69,2.4,2.17,2.17,0,0,0,1.48,1.57,2.06,2.06,0,0,0,2.15-.82,2.33,2.33,0,0,0,.47.27c.93.47,1.86.94,2.8,1.37-.09.24-.17.49-.25.74a9.17,9.17,0,0,0-.26,3.86l-.44.06-1.42.21q-.41.06-.81.15a2.17,2.17,0,0,0-1.12-.89,3.16,3.16,0,0,0-2-.21c-1.37.41-1.91,2.2-1.73,3.48a3.65,3.65,0,0,0,1.63,2.61,2.36,2.36,0,0,0,2.89-.42,3,3,0,0,0,.95-2.76,9.6,9.6,0,0,1,1.68-.25l.88-.07a10.1,10.1,0,0,0,2.24,3.42c-.18.19-.35.38-.52.58s-.3.37-.44.56a1.55,1.55,0,0,0-1.18,0,2.27,2.27,0,0,0-.8.51,1.52,1.52,0,0,0-.45.82,2,2,0,0,0,1.31,2,1.47,1.47,0,0,0,1.09,0,1.82,1.82,0,0,0,.81-.69,1.38,1.38,0,0,0,0-1.64l.73-.77c.14-.16.29-.32.44-.47.12.1.24.2.37.29a9.32,9.32,0,0,0,3.3,1.58.5.5,0,0,1,0,.12L159,52.64c-.08.43-.16.87-.2,1.31,0,.08,0,.16,0,.24a1.74,1.74,0,0,0-.67.2,1.25,1.25,0,0,0-.7,1.15,2,2,0,0,0,2.12,1.75,1.62,1.62,0,0,0,1.54-1.1,1.8,1.8,0,0,0-.05-.83,2.19,2.19,0,0,0-.35-.72,1.41,1.41,0,0,0-.67-.51l-.1,0c0-.13,0-.25.05-.38,0-.37.09-.75.12-1.13a11.54,11.54,0,0,1,.16-1.16l0-.07a8.77,8.77,0,0,0,1.15.08,8.52,8.52,0,0,0,4-1.18c.13.23.25.45.39.68l.39.67a2.43,2.43,0,0,0,.3.46,2.06,2.06,0,0,0-1.13,2.33c.62,1.91,3.2,1.32,4.31.24A2,2,0,0,0,170.1,52a2.77,2.77,0,0,0-2.84-.62,6.84,6.84,0,0,0-.8-1.45l.82-.68.4-.25a.16.16,0,0,0,.09-.18,11.45,11.45,0,0,0,2-2.23,8.94,8.94,0,0,0,.94-2.06c.56,0,1.12.14,1.68.23l1,.17a2.87,2.87,0,0,0,.67.07,3.14,3.14,0,0,0,.76,2,2.12,2.12,0,0,0,1.61.7,2.59,2.59,0,0,0,2.27-2.23,4.12,4.12,0,0,0-.36-2.89,1.71,1.71,0,0,0-1-.79,2.08,2.08,0,0,0-1.38.21,3.86,3.86,0,0,0-1.41,1.19c-.08.12-.16.24-.23.36-.27-.07-.53-.15-.8-.2l-1.24-.2-1.28-.22h0a7.46,7.46,0,0,0-.06-2.11,12.75,12.75,0,0,0-1-2.94c-.12-.27-.24-.52-.38-.78.5-.26,1-.52,1.49-.79l.83-.48c.12-.08.28-.16.41-.26a1.86,1.86,0,0,0,.86.44,1.5,1.5,0,0,0,1.78-.88A2.29,2.29,0,0,0,174.29,32.55Zm-20,17.81h0l0,0Z" transform="translate(-18.82 -12.99)"/><path class="cls-20" d="M165.47,40a2.21,2.21,0,0,0,.21-2.54,2.18,2.18,0,0,0-3.33-.72,2.45,2.45,0,0,0-.95,2.13,1.83,1.83,0,0,0,.21.59,2.54,2.54,0,0,0,1.62,1.36A2.09,2.09,0,0,0,165.47,40Z" transform="translate(-18.82 -12.99)"/><path class="cls-23" d="M165.47,40a2.21,2.21,0,0,0-1.15-1.56,2.14,2.14,0,0,0-2.71,1,2.54,2.54,0,0,0,1.62,1.36A2.09,2.09,0,0,0,165.47,40Z" transform="translate(-18.82 -12.99)"/><path class="cls-20" d="M159.4,41a2.18,2.18,0,0,0-3.39-.33,2.45,2.45,0,0,0-.7,2.23h0a2.66,2.66,0,0,0,2,1.71,2,2,0,0,0,1.79-.63A2.28,2.28,0,0,0,159.4,41Z" transform="translate(-18.82 -12.99)"/><path class="cls-23" d="M159.14,44a2.16,2.16,0,0,0-1.41-2.11,2.05,2.05,0,0,0-2.42,1h0a2.66,2.66,0,0,0,2,1.71A2,2,0,0,0,159.14,44Z" transform="translate(-18.82 -12.99)"/><path class="cls-23" d="M159.43,46.53a4.86,4.86,0,0,1,1.08-2.12,5.53,5.53,0,0,1,4.55-2.11,2.91,2.91,0,0,1,2.44,1.31,1.75,1.75,0,0,1-.08,2.31c-.56.47-1.43.1-2,0a3.08,3.08,0,0,0-2.32.37c-.82.63-.75,1.9-1.6,2.49a1.2,1.2,0,0,1-1.65-.39A2.18,2.18,0,0,1,159.43,46.53Z" transform="translate(-18.82 -12.99)"/><path class="cls-23" d="M165.72,37.13a3.25,3.25,0,0,1-3.51-1.08c-.18-.28-.53-1.47.2-1.37.18,0,.28.22.38.36a2,2,0,0,0,.77.71,3.63,3.63,0,0,0,1.36.37,4.79,4.79,0,0,1,.93.06.4.4,0,0,1,.33.43C166.16,37,165.8,37.07,165.72,37.13Z" transform="translate(-18.82 -12.99)"/><path class="cls-23" d="M154.87,43.33a3.24,3.24,0,0,0,1.18-3.48c-.11-.31-.88-1.29-1.22-.64-.09.16,0,.36.07.52a2,2,0,0,1,.12,1,3.52,3.52,0,0,1-.49,1.32,4.3,4.3,0,0,0-.5.78.41.41,0,0,0,.16.53A.59.59,0,0,0,154.87,43.33Z" transform="translate(-18.82 -12.99)"/><path class="cls-2" d="M59.51,179.3a1.77,1.77,0,0,0,2.33,0,2.17,2.17,0,0,0,.69-.91c.19,0,.4.05.57.07l1.12.08c.66.05,1.32.07,2,.09,0,.34,0,.68,0,1a14.69,14.69,0,0,0,.43,3.62,8.89,8.89,0,0,0,1,2.27h0c-.41.3-.83.59-1.25.88l-1.2.85a8.81,8.81,0,0,0-.75.62,3.78,3.78,0,0,0-.43-.26,4.3,4.3,0,0,0-2.1-.55,2.4,2.4,0,0,0-1.56.47,2.06,2.06,0,0,0-.65,1.34,4.91,4.91,0,0,0,1.09,3.24,3,3,0,0,0,3.54,1.22,2.55,2.55,0,0,0,1.35-1.56,3.69,3.69,0,0,0-.19-2.47,4.47,4.47,0,0,0,.67-.42c.35-.23.68-.47,1-.71a19.86,19.86,0,0,1,1.66-1.1,10.35,10.35,0,0,0,2,1.71,13.21,13.21,0,0,0,3.25,1.35.23.23,0,0,0,.19.15l.55.06c.41.1.81.19,1.21.3a8,8,0,0,0-.1,1.95c-1.17.31-2.39.8-2.7,2.1A2.36,2.36,0,0,0,75,197.4c1.72.58,4.76-.1,4.45-2.45a2.42,2.42,0,0,0-2.39-1.89,3.4,3.4,0,0,0,.09-.64c0-.31,0-.61.07-.92s.05-.6.07-.91a10.17,10.17,0,0,0,4.87-.8,9.17,9.17,0,0,0,1.18-.67l0,.07a12.8,12.8,0,0,1,.77,1.15c.22.38.46.76.7,1.14.07.12.16.24.24.37a.39.39,0,0,0-.1.08,1.55,1.55,0,0,0-.44.87,2.53,2.53,0,0,0,0,.95,2.1,2.1,0,0,0,.37.9,1.89,1.89,0,0,0,2.19.38,2.31,2.31,0,0,0,1.36-2.92,1.49,1.49,0,0,0-1.33-.87,1.84,1.84,0,0,0-.81.13l-.15-.25c-.27-.44-.57-.87-.88-1.28l-1-1.28a1,1,0,0,1-.08-.11A10.87,10.87,0,0,0,87,185.1c.09-.16.17-.33.24-.49l.71.26,1.16.45a1.63,1.63,0,0,0,.8,1.76,2,2,0,0,0,1.2.32,1.75,1.75,0,0,0,1.15-.56,2.36,2.36,0,0,0,.39-2.76,1.83,1.83,0,0,0-.9-.64,2.58,2.58,0,0,0-1.1-.13,1.8,1.8,0,0,0-1.24.61c-.25-.13-.5-.26-.76-.37s-.55-.24-.83-.35a11.85,11.85,0,0,0,.62-4.76l1-.38a12.78,12.78,0,0,1,1.91-.59,3.48,3.48,0,0,0,2.41,2.45,2.77,2.77,0,0,0,3.28-1,4.33,4.33,0,0,0,.4-3.6c-.46-1.45-1.94-3.07-3.6-2.8a3.67,3.67,0,0,0-2,1.24,2.53,2.53,0,0,0-.73,1.51c-.32.07-.63.16-.94.25l-1.6.5-.5.16a10.9,10.9,0,0,0-2.24-4c-.2-.23-.42-.45-.64-.66.79-.93,1.53-1.9,2.27-2.87a2.57,2.57,0,0,0,.36-.53,2.4,2.4,0,0,0,2.7-.22,2.56,2.56,0,0,0,.77-2.41,3.05,3.05,0,0,0-1.95-2.2c-1-.37-2.58-.54-3.25.47a2.71,2.71,0,0,0-.2,1.94,4.85,4.85,0,0,0,.54,1.65,30.59,30.59,0,0,1-2.54,3.12,11.88,11.88,0,0,0-6.64-2.05v-.06c0-.43-.3-3.44-.3-3.57v-.12c2.07.12,3.34-2.9,1.55-4.2a3.81,3.81,0,0,0-3.2-.49c-1.08.32-2.38,1-2.59,2.26a1.68,1.68,0,0,0,.56,1.63,4,4,0,0,0,2,.73c0,.25,0,.5.05.75.06.63.11,1.25.18,1.88,0,.4.08.82.13,1.23a20.32,20.32,0,0,0-2.15.51,10.59,10.59,0,0,0-2.87,1.44c-.22-.31-2-2.52-2.16-2.66a2.49,2.49,0,0,0,.22-2.39,2.87,2.87,0,0,0-1.93-1.77A3,3,0,0,0,64,164.8a2.36,2.36,0,0,0-.12,2.84,3,3,0,0,0,3.34,1.06c.11.11,1.94,2.43,2.19,2.73A11,11,0,0,0,68,173.07a10.06,10.06,0,0,0-1.62,4.12c-.58-.1-1.17-.21-1.76-.29l-1.15-.16-.62-.07h-.33a1.47,1.47,0,0,0-1.38-1.56A2.37,2.37,0,0,0,59,176.29,2.69,2.69,0,0,0,59.51,179.3ZM89.16,185h.06v0Z" transform="translate(-18.82 -12.99)"/><path class="cls-20" d="M75.67,178.52A2.61,2.61,0,0,1,73,180a2.57,2.57,0,0,1-2.36-3.24,2.9,2.9,0,0,1,1.83-2,2.46,2.46,0,0,1,.73-.06,3,3,0,0,1,2.23,1.09A2.44,2.44,0,0,1,75.67,178.52Z" transform="translate(-18.82 -12.99)"/><path class="cls-23" d="M75.67,178.52a2.55,2.55,0,0,1-2.22-.49,2.52,2.52,0,0,1-.21-3.4,3,3,0,0,1,2.23,1.09A2.44,2.44,0,0,1,75.67,178.52Z" transform="translate(-18.82 -12.99)"/><path class="cls-20" d="M81.44,180.78a2.56,2.56,0,0,1-2.37-3.23,2.9,2.9,0,0,1,1.83-2h0a3.09,3.09,0,0,1,3,1,2.31,2.31,0,0,1,.44,2.18A2.68,2.68,0,0,1,81.44,180.78Z" transform="translate(-18.82 -12.99)"/><path class="cls-23" d="M84.31,178.72a2.54,2.54,0,0,1-3-.15,2.44,2.44,0,0,1-.41-3.07h0a3.09,3.09,0,0,1,3,1A2.31,2.31,0,0,1,84.31,178.72Z" transform="translate(-18.82 -12.99)"/><path class="cls-23" d="M81.81,183.56a5.88,5.88,0,0,0-2.22-1.71,6.52,6.52,0,0,0-5.9.09,3.39,3.39,0,0,0-1.91,2.62A2,2,0,0,0,73,187c.83.22,1.57-.61,2.17-1.05a3.58,3.58,0,0,1,2.64-.79c1.19.25,1.76,1.63,3,1.83a1.4,1.4,0,0,0,1.55-1.25A2.53,2.53,0,0,0,81.81,183.56Z" transform="translate(-18.82 -12.99)"/><path class="cls-23" d="M70.37,176.79a3.79,3.79,0,0,0,3.17-2.93c.06-.38-.18-1.82-.9-1.35-.18.12-.19.38-.22.58a2.32,2.32,0,0,1-.46,1.14,4.35,4.35,0,0,1-1.25,1.09,4.63,4.63,0,0,0-.95.53.47.47,0,0,0-.14.62A.72.72,0,0,0,70.37,176.79Z" transform="translate(-18.82 -12.99)"/><path class="cls-23" d="M85,177.85a3.8,3.8,0,0,1-3-3.09c0-.39.28-1.81,1-1.3.18.12.17.39.2.59a2.3,2.3,0,0,0,.39,1.17,4.35,4.35,0,0,0,1.2,1.14,5,5,0,0,1,.91.58.49.49,0,0,1,.11.64A.72.72,0,0,1,85,177.85Z" transform="translate(-18.82 -12.99)"/><path class="cls-2" d="M65.73,400.91a1.75,1.75,0,0,0,2.19-.69,2.07,2.07,0,0,0,.36-1.05,4.07,4.07,0,0,0,.55-.12l1.07-.26c.63-.16,1.26-.35,1.88-.52.09.31.19.63.3.94a14.38,14.38,0,0,0,1.52,3.25,8.28,8.28,0,0,0,1.63,1.81h0c-.29.4-.59.81-.89,1.2l-.87,1.17c-.18.25-.34.53-.5.8a3.88,3.88,0,0,0-.49-.11,4.24,4.24,0,0,0-2.12.13,2.36,2.36,0,0,0-1.32.92,2,2,0,0,0-.19,1.44,4.81,4.81,0,0,0,2,2.7,3,3,0,0,0,3.69.05,2.51,2.51,0,0,0,.78-1.86,3.61,3.61,0,0,0-.94-2.26,4.69,4.69,0,0,0,.51-.59l.73-1c.39-.52.77-1.05,1.21-1.54a9.6,9.6,0,0,0,2.43,1,12.83,12.83,0,0,0,3.44.26.23.23,0,0,0,.23.08l.53-.11,1.23-.09a7.89,7.89,0,0,0,.49,1.85c-1,.65-2,1.48-1.87,2.79a2.3,2.3,0,0,0,2.45,1.94c1.79,0,4.42-1.55,3.41-3.64a2.38,2.38,0,0,0-2.81-1,2.62,2.62,0,0,0-.12-.62l-.21-.88c-.07-.29-.14-.58-.22-.87a10,10,0,0,0,4.31-2.24,10.57,10.57,0,0,0,.9-1l.06.05a12.35,12.35,0,0,1,1.07.84l1,.85.34.27a.86.86,0,0,0-.07.1,1.66,1.66,0,0,0-.14,1,2.34,2.34,0,0,0,.29.88,2,2,0,0,0,.61.73,1.87,1.87,0,0,0,2.17-.32,2.28,2.28,0,0,0,.37-3.14,1.47,1.47,0,0,0-1.51-.41,2,2,0,0,0-.72.37l-.21-.18c-.39-.33-.79-.64-1.21-.93l-1.29-.9-.11-.07a10.93,10.93,0,0,0,1.49-4c0-.18.06-.36.08-.54l.74,0,1.22.06a1.61,1.61,0,0,0,1.28,1.4,2,2,0,0,0,1.22-.06,1.7,1.7,0,0,0,.91-.88,2.31,2.31,0,0,0-.48-2.69,1.76,1.76,0,0,0-1-.33,2.63,2.63,0,0,0-1.07.22,1.81,1.81,0,0,0-1,.95c-.27-.05-.55-.09-.82-.12l-.89-.07a11.74,11.74,0,0,0-.87-4.64l.79-.64a12.18,12.18,0,0,1,1.6-1.14,3.4,3.4,0,0,0,3,1.55,2.73,2.73,0,0,0,2.75-2,4.21,4.21,0,0,0-.73-3.48c-.87-1.21-2.75-2.27-4.22-1.52a3.72,3.72,0,0,0-1.52,1.78,2.5,2.5,0,0,0-.21,1.65,8.33,8.33,0,0,0-.8.51l-1.35,1-.42.3a10.46,10.46,0,0,0-3.3-3,8.62,8.62,0,0,0-.8-.41c.45-1.12.85-2.25,1.24-3.39a2.13,2.13,0,0,0,.18-.6,2.37,2.37,0,0,0,2.45-1,2.51,2.51,0,0,0,0-2.49,3,3,0,0,0-2.49-1.46c-1,0-2.57.3-2.9,1.44a2.69,2.69,0,0,0,.41,1.87,4.63,4.63,0,0,0,1,1.38,32.29,32.29,0,0,1-1.42,3.69,11.69,11.69,0,0,0-6.83.12l0-.05c-.17-.39-1.33-3.13-1.37-3.25s0-.07,0-.11c2-.53,2.23-3.72.16-4.39a3.73,3.73,0,0,0-3.14.52c-.91.62-1.9,1.7-1.73,2.9a1.67,1.67,0,0,0,1,1.35,3.87,3.87,0,0,0,2.13.05c.08.24.19.46.28.69.25.57.49,1.14.75,1.7.16.36.32.74.5,1.11A18.36,18.36,0,0,0,75.59,387a10.43,10.43,0,0,0-2.24,2.21c-.3-.22-2.66-1.72-2.83-1.81a2.47,2.47,0,0,0-.53-2.3,2.81,2.81,0,0,0-2.34-1.06A2.9,2.9,0,0,0,65.43,386a2.32,2.32,0,0,0,.76,2.69,2.91,2.91,0,0,0,3.44,0c.14.07,2.56,1.67,2.89,1.88a10.38,10.38,0,0,0-.8,1.95,10,10,0,0,0-.25,4.34c-.58.09-1.16.17-1.73.27-.38.06-.75.13-1.13.21l-.6.12-.3.1a1.44,1.44,0,0,0-1.77-1,2.29,2.29,0,0,0-1.63,1.75A2.63,2.63,0,0,0,65.73,400.91Zm29.43-3.78h0v0Z" transform="translate(-18.82 -12.99)"/><path class="cls-20" d="M80.58,395.23a2.63,2.63,0,0,1-5.21-.14,2.86,2.86,0,0,1,1.08-2.47,2.55,2.55,0,0,1,.67-.28,3,3,0,0,1,2.42.34A2.42,2.42,0,0,1,80.58,395.23Z" transform="translate(-18.82 -12.99)"/><path class="cls-23" d="M80.58,395.23a2.52,2.52,0,0,1-2.23.22,2.48,2.48,0,0,1-1.23-3.11,3,3,0,0,1,2.42.34A2.42,2.42,0,0,1,80.58,395.23Z" transform="translate(-18.82 -12.99)"/><path class="cls-20" d="M86.66,395.57c-1.56.29-3.23-.6-3.2-2.29a2.86,2.86,0,0,1,1.08-2.47h0a3,3,0,0,1,3.07.07,2.3,2.3,0,0,1,1.08,1.9A2.64,2.64,0,0,1,86.66,395.57Z" transform="translate(-18.82 -12.99)"/><path class="cls-23" d="M88.71,392.77a2.5,2.5,0,0,1-2.83.77,2.38,2.38,0,0,1-1.32-2.73h0a3,3,0,0,1,3.07.07A2.3,2.3,0,0,1,88.71,392.77Z" transform="translate(-18.82 -12.99)"/><path class="cls-23" d="M87.86,398.05a5.81,5.81,0,0,0-2.6-.91A6.39,6.39,0,0,0,79.78,399a3.36,3.36,0,0,0-1,3c.2.94.82,1.92,1.92,1.86.84-.05,1.27-1.06,1.69-1.65a3.52,3.52,0,0,1,2.23-1.54c1.19-.13,2.14,1,3.32.8A1.39,1.39,0,0,0,89,399.88,2.51,2.51,0,0,0,87.86,398.05Z" transform="translate(-18.82 -12.99)"/><path class="cls-23" d="M75.1,395.24a3.73,3.73,0,0,0,2.06-3.71c-.06-.37-.73-1.64-1.25-1-.13.16-.07.41,0,.61a2.24,2.24,0,0,1-.08,1.2,4,4,0,0,1-.84,1.4,5.4,5.4,0,0,0-.72.79.47.47,0,0,0,.06.62A.72.72,0,0,0,75.1,395.24Z" transform="translate(-18.82 -12.99)"/><path class="cls-23" d="M89.1,391.74a3.72,3.72,0,0,1-3.76-2c-.16-.35-.3-1.77.51-1.51.2.06.27.31.36.49a2.35,2.35,0,0,0,.72,1,4.24,4.24,0,0,0,1.47.7,5.28,5.28,0,0,1,1,.26.49.49,0,0,1,.29.56C89.62,391.71,89.19,391.7,89.1,391.74Z" transform="translate(-18.82 -12.99)"/><path class="cls-2" d="M428.51,139.45a2.17,2.17,0,0,0-.82-2.11,1.36,1.36,0,0,0-1.92.28l-.23-.19-.48-.32c-.3-.2-.61-.39-.92-.58-.47-.29-.95-.56-1.42-.84a9.34,9.34,0,0,0,1.3-3.9,9.45,9.45,0,0,0,0-2c.36-.07,3-.63,3.19-.64a2.75,2.75,0,0,0,3,1.24,2.21,2.21,0,0,0,1.62-2.1,2.74,2.74,0,0,0-1.26-2.49,2.64,2.64,0,0,0-2.43.11,2.35,2.35,0,0,0-1.27,1.83c-.18,0-2.78.51-3.12.6a9.89,9.89,0,0,0-1.19-2.73,19.5,19.5,0,0,0-1.22-1.65l.82-.79c.43-.41.84-.82,1.26-1.24.16-.16.33-.32.48-.5a3.62,3.62,0,0,0,1.89.7,1.56,1.56,0,0,0,1.38-.82,3.15,3.15,0,0,0-.5-3.15,3.51,3.51,0,0,0-2.58-1.57c-2-.13-2.94,2.77-1.4,3.92l-.07.08c-.07.1-2.06,2.08-2.34,2.37l0,0a11,11,0,0,0-6-2.49,29.18,29.18,0,0,1,.06-3.74,4.28,4.28,0,0,0,1.37-.86,2.42,2.42,0,0,0,1-1.49c.12-1.12-1.11-2-2-2.28a2.84,2.84,0,0,0-2.7.4,2.38,2.38,0,0,0-.89,2.18,2.24,2.24,0,0,0,1.79,1.77,2.57,2.57,0,0,0-.06.59c-.05,1.13-.1,2.27-.1,3.4l-.85.09a9.82,9.82,0,0,0-3.95,1.48c-.09-.13-.18-.27-.26-.41-.28-.44-.56-.88-.85-1.31-.16-.26-.33-.5-.51-.74a2.41,2.41,0,0,0,.38-1.52A3.45,3.45,0,0,0,406,116c-1-1.18-3-.91-4.23-.15a4,4,0,0,0-1.87,2.8,2.6,2.6,0,0,0,1.73,2.68,3.2,3.2,0,0,0,3.18-.31,12.26,12.26,0,0,1,1,1.57l.47.84a11.23,11.23,0,0,0-2.4,3.77c-.26-.1-.53-.18-.8-.26s-.5-.12-.76-.18a1.71,1.71,0,0,0-.51-1.18,2.5,2.5,0,0,0-.87-.56,1.63,1.63,0,0,0-1-.08,2.17,2.17,0,0,0-1.37,2.19,1.6,1.6,0,0,0,.49,1.09,1.87,1.87,0,0,0,1,.49,1.53,1.53,0,0,0,1.62-.78c.36.13.72.26,1.09.37l.66.24-.12.49a10.37,10.37,0,0,0-.08,4l-.12,0-1.44.34c-.47.11-.94.23-1.4.38l-.24.09a2,2,0,0,0-.5-.57,1.38,1.38,0,0,0-1.47-.18,2.16,2.16,0,0,0-.78,2.9,1.77,1.77,0,0,0,1.79,1,1.93,1.93,0,0,0,.8-.42,2.45,2.45,0,0,0,.56-.68,1.53,1.53,0,0,0,.21-.89l0-.11.4-.12q.58-.18,1.17-.39a11.42,11.42,0,0,1,1.23-.36l.08,0a8.38,8.38,0,0,0,.44,1.18,9.51,9.51,0,0,0,3,3.48c-.17.22-.33.45-.5.68l-.49.7a2.93,2.93,0,0,0-.32.51,2.23,2.23,0,0,0-2.83-.08c-1.62,1.48.14,3.78,1.71,4.4a2.19,2.19,0,0,0,2.84-.85c.55-1.11,0-2.19-.67-3.1a7.25,7.25,0,0,0,1.09-1.45l1,.5.43.29a.22.22,0,0,0,.22,0,12.71,12.71,0,0,0,3.12,1,9.29,9.29,0,0,0,2.47,0,18.2,18.2,0,0,1,.53,1.78c.1.37.19.74.3,1.11a3.82,3.82,0,0,0,.23.7,3.48,3.48,0,0,0-1.61,1.65,2.31,2.31,0,0,0,0,1.91,2.85,2.85,0,0,0,3.25,1.25,4.6,4.6,0,0,0,2.71-1.66,1.93,1.93,0,0,0,.33-1.34,2.21,2.21,0,0,0-.83-1.27,4,4,0,0,0-1.82-.86,3.65,3.65,0,0,0-.46-.07,8.52,8.52,0,0,0-.16-.88c-.11-.45-.24-.89-.36-1.33s-.25-.91-.36-1.37h0a8.27,8.27,0,0,0,2.07-1,14.28,14.28,0,0,0,2.47-2.32c.21-.24.41-.48.59-.73.49.37,1,.76,1.47,1.12l.85.61c.13.08.28.2.44.29a2,2,0,0,0-.05,1.06,1.63,1.63,0,0,0,1.68,1.36A2.5,2.5,0,0,0,428.51,139.45Zm-26.73-11.83v0l0,0Z" transform="translate(-18.82 -12.99)"/><path class="cls-20" d="M415.29,131.08a2.42,2.42,0,0,0,1,2.6,2.38,2.38,0,0,0,3.61-.9,2.69,2.69,0,0,0-.09-2.54,2,2,0,0,0-.49-.48,2.79,2.79,0,0,0-2.23-.56A2.29,2.29,0,0,0,415.29,131.08Z" transform="translate(-18.82 -12.99)"/><path class="cls-23" d="M415.29,131.08a2.41,2.41,0,0,0,1.87,1,2.33,2.33,0,0,0,2.17-2.3,2.79,2.79,0,0,0-2.23-.56A2.29,2.29,0,0,0,415.29,131.08Z" transform="translate(-18.82 -12.99)"/><path class="cls-20" d="M409.83,129.25a2.38,2.38,0,0,0,3.62-.9,2.69,2.69,0,0,0-.09-2.54h0a2.88,2.88,0,0,0-2.72-1,2.15,2.15,0,0,0-1.61,1.29A2.49,2.49,0,0,0,409.83,129.25Z" transform="translate(-18.82 -12.99)"/><path class="cls-23" d="M409,126.07a2.36,2.36,0,0,0,2.21,1.67,2.26,2.26,0,0,0,2.12-1.94h0a2.88,2.88,0,0,0-2.72-1A2.15,2.15,0,0,0,409,126.07Z" transform="translate(-18.82 -12.99)"/><path class="cls-23" d="M407.91,131a5.54,5.54,0,0,1,2.6.11,6.1,6.1,0,0,1,4.15,3.58,3.19,3.19,0,0,1-.2,3,1.91,1.91,0,0,1-2.33,1c-.72-.34-.75-1.37-.92-2a3.3,3.3,0,0,0-1.41-2.14c-1-.53-2.22.11-3.19-.46a1.31,1.31,0,0,1-.36-1.82A2.38,2.38,0,0,1,407.91,131Z" transform="translate(-18.82 -12.99)"/><path class="cls-23" d="M420.1,133a3.54,3.54,0,0,1-.52-4c.19-.31,1.22-1.19,1.45-.42.06.19-.09.38-.18.54a2.08,2.08,0,0,0-.36,1.09,3.94,3.94,0,0,0,.24,1.52,4.67,4.67,0,0,1,.36.94.45.45,0,0,1-.27.53A.65.65,0,0,1,420.1,133Z" transform="translate(-18.82 -12.99)"/><path class="cls-23" d="M409,125a3.52,3.52,0,0,0,4-.41c.25-.25.88-1.45.08-1.5-.2,0-.35.17-.49.3a2.16,2.16,0,0,1-1,.6,4,4,0,0,1-1.53.1,5.71,5.71,0,0,0-1-.13.45.45,0,0,0-.46.39C408.59,124.82,409,125,409,125Z" transform="translate(-18.82 -12.99)"/><path class="cls-34" d="M104.89,312.6a1.42,1.42,0,0,0,0-.58,1.5,1.5,0,0,0-1.82-1.16l-1.37-2.7A10.17,10.17,0,0,0,106,304.3l3,1.28a5,5,0,0,0,.39,1.91,1.93,1.93,0,0,0,1.48,1.15,2.46,2.46,0,0,0,2-1.16,4.1,4.1,0,0,0,.9-2,2.32,2.32,0,0,0-.77-2,2.54,2.54,0,0,0-3.41.8l-2.93-1.43a11,11,0,0,0-.54-6.59l1.42-.74c.77.81,2,1.43,3,.87s1-2.33.25-3.39a2.43,2.43,0,0,0-2.34-1.27,2,2,0,0,0-1,2.81l-1.83.87a7.94,7.94,0,0,0-3.56-3.66c.39-.77.78-1.53,1.16-2.3a1.78,1.78,0,0,0,2-1.76,1.74,1.74,0,0,0-2.23-1.46,1.7,1.7,0,0,0-.7,2.55c-.37.86-.75,1.73-1.12,2.6a9.54,9.54,0,0,0-3.93-.47l-.25-1.57a1.66,1.66,0,0,0,.33-2.58,1.73,1.73,0,0,0-2.6.51,1.81,1.81,0,0,0,1.12,2.43c0,.47.1.93.16,1.39a10.38,10.38,0,0,0-3.62,1.54A11.88,11.88,0,0,1,90.41,291a3.09,3.09,0,0,0,.79-2.4,2.55,2.55,0,0,0-1.47-2A3,3,0,0,0,87,287a3.34,3.34,0,0,0-1.4,3.62A2.47,2.47,0,0,0,88.92,292l1.92,1.8a9.23,9.23,0,0,0-2,3.93l-3.52-.44a1.84,1.84,0,0,0-1.54-1.85,2.25,2.25,0,0,0-2.2,1.14,2.86,2.86,0,0,0,0,2.55,1.93,1.93,0,0,0,1.13,1.11c1.08.33,2.06-.7,2.72-1.62l3.25.49a10,10,0,0,0,1.31,5.53l-2.5,1.77a2,2,0,0,0-2.64-.71,2.06,2.06,0,0,0-.9,2.32,4,4,0,0,0,2,2.29,1.83,1.83,0,0,0,2.41-.64,2.66,2.66,0,0,0-.21-2.07l2.56-1.86a10,10,0,0,0,3.46,2.73c-.32.89-.65,1.78-1,2.66a2.19,2.19,0,1,0,1.19.44l1-2.66a8.47,8.47,0,0,0,5.31-.27l1.21,2.9a1.46,1.46,0,0,0-.18,2.1,1.89,1.89,0,0,0,2.19.34A2,2,0,0,0,104.89,312.6Zm-8.3-23.27,0,0h0Z" transform="translate(-18.82 -12.99)"/><path class="cls-23" d="M100.8,303.09c1.11-1.18,3.27-5.45,2.5-5.85s-3.54,5.33-3.45,5.78C100,303.75,100.63,303.28,100.8,303.09Z" transform="translate(-18.82 -12.99)"/><path class="cls-23" d="M104.16,301.88c-1.57-.32-5.85-2.54-5.46-3.32s6,2,6.16,2.74S104.42,301.93,104.16,301.88Z" transform="translate(-18.82 -12.99)"/><path class="cls-23" d="M93.82,305.49c1.09-1.18,3.21-5.47,2.43-5.87s-3.47,5.37-3.38,5.82C93,306.17,93.65,305.69,93.82,305.49Z" transform="translate(-18.82 -12.99)"/><path class="cls-23" d="M97.17,304.25c-1.58-.31-5.88-2.48-5.49-3.26s6,1.95,6.18,2.67S97.43,304.3,97.17,304.25Z" transform="translate(-18.82 -12.99)"/><path class="cls-3" d="M99.94,295.42s-.88-4.07-2.39-3.71c-2.28.54-.57,4.75-.57,4.75Z" transform="translate(-18.82 -12.99)"/><path class="cls-23" d="M93.18,298s7.44-2.26,7.29-2.78-7.86,2.12-7.88,2.69C92.57,298.28,92.9,298.12,93.18,298Z" transform="translate(-18.82 -12.99)"/><path class="cls-34" d="M29.43,122.26a1.87,1.87,0,0,0,.67.07,1.76,1.76,0,0,0,1.6-2L35,119.15a11.93,11.93,0,0,0,3.92,5.49l-1.89,3.27a5.78,5.78,0,0,0-2.27.19,2.27,2.27,0,0,0-1.54,1.57,2.9,2.9,0,0,0,1.08,2.48,4.83,4.83,0,0,0,2.25,1.32,2.68,2.68,0,0,0,2.45-.63c1.08-1.08.66-3-.46-4.06l2-3.23a12.83,12.83,0,0,0,7.73.26l.67,1.76c-1,.78-1.93,2.13-1.4,3.32.6,1.35,2.57,1.41,3.9.74a2.85,2.85,0,0,0,1.79-2.55,2.29,2.29,0,0,0-3.12-1.59l-.77-2.24a9.31,9.31,0,0,0,4.73-3.65l2.51,1.66a2.09,2.09,0,0,0,1.78,2.59,2,2,0,0,0,2-2.39,2,2,0,0,0-2.87-1.16l-2.87-1.65a11,11,0,0,0,1.07-4.5l1.85-.09a2,2,0,0,0,3,.73,2,2,0,0,0-.25-3.09,2.12,2.12,0,0,0-3,1H55.71a11.91,11.91,0,0,0-1.3-4.4,14.58,14.58,0,0,1,2.12-2,3.64,3.64,0,0,0,2.69,1.25,3,3,0,0,0,2.54-1.44,3.5,3.5,0,0,0-.1-3.25,3.92,3.92,0,0,0-4-2.12,2.89,2.89,0,0,0-2.15,3.69l-2.36,2a10.68,10.68,0,0,0-4.3-2.91l1-4A2.15,2.15,0,0,0,52.17,100a2.62,2.62,0,0,0-1-2.72,3.34,3.34,0,0,0-3-.39A2.31,2.31,0,0,0,46.73,98c-.53,1.21.55,2.49,1.53,3.38l-1,3.71a11.76,11.76,0,0,0-6.6.79l-1.73-3.15a2.37,2.37,0,0,0,1.18-3,2.4,2.4,0,0,0-2.57-1.36,4.63,4.63,0,0,0-2.93,2A2.15,2.15,0,0,0,35,103.3a3.1,3.1,0,0,0,2.43,0l1.82,3.23a11.74,11.74,0,0,0-3.63,3.66l-3-1.48a2.69,2.69,0,0,0-2.92-3A2.56,2.56,0,1,0,32,110.05l3,1.51a9.87,9.87,0,0,0-.4,6.21l-3.54,1a1.7,1.7,0,0,0-2.41-.49,2.22,2.22,0,0,0-.7,2.5A2.38,2.38,0,0,0,29.43,122.26Zm28.17-6.55h0v0Z" transform="translate(-18.82 -12.99)"/><path class="cls-23" d="M41,118.78c1.22,1.44,5.89,4.52,6.46,3.68s-5.72-4.82-6.26-4.78C40.37,117.74,40.84,118.54,41,118.78Z" transform="translate(-18.82 -12.99)"/><path class="cls-23" d="M42,122.85c.58-1.8,3.73-6.47,4.58-5.91s-3.14,6.68-4,6.79S41.9,123.14,42,122.85Z" transform="translate(-18.82 -12.99)"/><path class="cls-23" d="M39.18,110.34c1.23,1.43,5.93,4.46,6.5,3.61s-5.78-4.76-6.31-4.72C38.5,109.31,39,110.11,39.18,110.34Z" transform="translate(-18.82 -12.99)"/><path class="cls-23" d="M40.17,114.4c.57-1.8,3.67-6.51,4.53-6s-3.07,6.7-3.93,6.83S40.08,114.69,40.17,114.4Z" transform="translate(-18.82 -12.99)"/><path class="cls-3" d="M50.07,118.8s4.85-.48,4.63-2.29c-.32-2.71-5.45-1.29-5.45-1.29Z" transform="translate(-18.82 -12.99)"/><path class="cls-23" d="M48,110.6s1.64,9,2.26,8.84-1.41-9.42-2.07-9.52C47.73,109.85,47.87,110.25,48,110.6Z" transform="translate(-18.82 -12.99)"/><path class="cls-34" d="M385.68,329.6a1.71,1.71,0,0,0,.31.52,1.57,1.57,0,0,0,2.26.05l2.68,1.68a10.57,10.57,0,0,0-1.72,5.76l-3.34.46a5,5,0,0,0-1.38-1.5,2,2,0,0,0-1.95-.22,2.56,2.56,0,0,0-1.15,2.11,4.24,4.24,0,0,0,.3,2.31,2.39,2.39,0,0,0,1.78,1.38c1.35.17,2.5-1.19,2.61-2.55l3.4-.32a11.38,11.38,0,0,0,4,5.59l-.87,1.43c-1.12-.3-2.56-.19-3.11.83-.62,1.17.42,2.59,1.61,3.15a2.54,2.54,0,0,0,2.78-.12,2.05,2.05,0,0,0-.59-3.08l1.16-1.76a8.41,8.41,0,0,0,5.16,1.34l.2,2.67A1.86,1.86,0,0,0,399,352a1.81,1.81,0,0,0,2.78.1,1.77,1.77,0,0,0-.75-2.65c-.14-1-.28-1.95-.41-2.93a10,10,0,0,0,3.76-1.71l1.07,1.26a1.74,1.74,0,0,0,1.11,2.49,1.82,1.82,0,0,0,2-1.86,1.89,1.89,0,0,0-2.32-1.57c-.3-.38-.6-.77-.89-1.16a10.83,10.83,0,0,0,2.39-3.33,12.75,12.75,0,0,1,2.53.43,3.3,3.3,0,0,0,.6,2.58,2.66,2.66,0,0,0,2.4,1,3.1,3.1,0,0,0,2.24-1.85,3.49,3.49,0,0,0-.72-4,2.57,2.57,0,0,0-3.77.49l-2.69-.56a9.52,9.52,0,0,0-.3-4.62l3.38-1.51a1.91,1.91,0,0,0,2.37.81,2.33,2.33,0,0,0,1.35-2.21,3,3,0,0,0-1.34-2.3,2.08,2.08,0,0,0-1.61-.38c-1.15.3-1.46,1.75-1.55,2.93l-3.16,1.32a10.52,10.52,0,0,0-4.17-4.22l1.27-2.94a2.12,2.12,0,0,0,2.74-.79,2.15,2.15,0,0,0-.45-2.56,4.12,4.12,0,0,0-3-1,1.92,1.92,0,0,0-1.81,1.87,2.79,2.79,0,0,0,1.32,1.73L402.13,328a10.45,10.45,0,0,0-4.57-.56c-.19-1-.38-1.93-.58-2.9a2.28,2.28,0,1,0-1.29.25c.18,1,.37,1.95.55,2.92a8.74,8.74,0,0,0-4.59,3.11L389,328.83a1.51,1.51,0,0,0-1-2,2,2,0,0,0-2.15.88A2.09,2.09,0,0,0,385.68,329.6Zm20,16.27,0,0h0Z" transform="translate(-18.82 -12.99)"/><path class="cls-23" d="M394.48,335.88c-.35,1.65,0,6.63.94,6.57s.27-6.67-.05-7C394.85,334.84,394.54,335.62,394.48,335.88Z" transform="translate(-18.82 -12.99)"/><path class="cls-23" d="M392.14,338.78c1.58-.57,6.6-.91,6.67,0s-6.42,1.44-7,.9S391.88,338.87,392.14,338.78Z" transform="translate(-18.82 -12.99)"/><path class="cls-23" d="M399.41,330c-.33,1.65.1,6.63,1,6.56s.19-6.67-.13-7C399.77,328.91,399.46,329.69,399.41,330Z" transform="translate(-18.82 -12.99)"/><path class="cls-23" d="M397.09,332.88c1.58-.59,6.59-1,6.67-.07s-6.4,1.5-7,1S396.84,333,397.09,332.88Z" transform="translate(-18.82 -12.99)"/><path class="cls-3" d="M399.4,342.26s3,3.15,4.15,2c1.74-1.71-2.07-4.55-2.07-4.55Z" transform="translate(-18.82 -12.99)"/><path class="cls-23" d="M404.05,336.31s-5.42,6.05-5,6.42,5.87-6.14,5.58-6.67C404.43,335.71,404.23,336,404.05,336.31Z" transform="translate(-18.82 -12.99)"/><path class="cls-34" d="M362.59,50.49a2.1,2.1,0,0,0-.42.63,2,2,0,0,0,1.14,2.59c-.16,1.32-.33,2.63-.49,3.94a13.25,13.25,0,0,0-7.47,1.09l-2.29-3.56a6.44,6.44,0,0,0,1-2.36,2.53,2.53,0,0,0-.78-2.33,3.21,3.21,0,0,0-3-.2,5.5,5.5,0,0,0-2.46,1.56,3,3,0,0,0-.64,2.76c.53,1.63,2.69,2.21,4.29,1.62l2.16,3.7a14.32,14.32,0,0,0-4.22,7.56l-2.09-.23c-.25-1.44-1.14-3-2.59-3.1C343,64.07,342,66,342,67.66a3.18,3.18,0,0,0,1.62,3.09c1.41.57,3.05-.78,3.19-2.29l2.62.38a10.39,10.39,0,0,0,1.2,6.58l-2.94,1.65a2.33,2.33,0,0,0-3.48.44,2.28,2.28,0,0,0,1.35,3.22,2.22,2.22,0,0,0,2.62-2.26l3.12-2a12.41,12.41,0,0,0,3.93,3.38l-.86,1.88a2.18,2.18,0,0,0-2.24,2.58,2.27,2.27,0,0,0,3.19,1.34,2.38,2.38,0,0,0,.56-3.47l.84-1.63a13.46,13.46,0,0,0,5.06,1,16.1,16.1,0,0,1,.85,3.11A4.09,4.09,0,0,0,360,86.65a3.32,3.32,0,0,0,.13,3.26,3.86,3.86,0,0,0,3.28,1.56,4.36,4.36,0,0,0,4.17-2.92,3.23,3.23,0,0,0-2.56-4l-.78-3.36a12.11,12.11,0,0,0,5.1-2.79l3.5,3a2.4,2.4,0,0,0,.34,3.13,2.91,2.91,0,0,0,3.23.36,3.77,3.77,0,0,0,1.9-2.74,2.58,2.58,0,0,0-.42-2c-.94-1.15-2.76-.74-4.15-.22L370.54,77a13.2,13.2,0,0,0,2.6-7l4-.1a2.56,2.56,0,0,0,5,.83,5.17,5.17,0,0,0-.48-3.94,2.4,2.4,0,0,0-3.09-1.06,3.46,3.46,0,0,0-1.27,2.41l-4.14.15a13.22,13.22,0,0,0-1.79-5.49l3-2.19a2.86,2.86,0,1,0-1-1.34l-3,2.17a11.13,11.13,0,0,0-6-3.58c.26-1.35.53-2.69.8-4A1.9,1.9,0,0,0,367,51.71a2.49,2.49,0,0,0-2.14-2A2.64,2.64,0,0,0,362.59,50.49Zm-7.92,31.39s0,0,0,.05h0Z" transform="translate(-18.82 -12.99)"/><path class="cls-23" d="M360.11,63.83c-2.06.47-7.52,3.54-7,4.55s7.73-3.23,8-3.78C361.48,63.7,360.44,63.75,360.11,63.83Z" transform="translate(-18.82 -12.99)"/><path class="cls-23" d="M355.57,62.7c1.48,1.5,4.52,7,3.52,7.58s-5-6.54-4.7-7.46S355.33,62.45,355.57,62.7Z" transform="translate(-18.82 -12.99)"/><path class="cls-23" d="M369.46,66.3c-2,.49-7.48,3.62-6.93,4.62s7.7-3.31,7.93-3.87C370.84,66.16,369.79,66.22,369.46,66.3Z" transform="translate(-18.82 -12.99)"/><path class="cls-23" d="M364.91,65.21c1.5,1.49,4.6,7,3.6,7.55s-5.1-6.49-4.78-7.41S364.67,65,364.91,65.21Z" transform="translate(-18.82 -12.99)"/><path class="cls-3" d="M355.46,72.8s-2,5.08-.1,5.79c2.87,1.07,4.08-4.77,4.08-4.77Z" transform="translate(-18.82 -12.99)"/><path class="cls-23" d="M364.68,74.94s-9.75-3-9.95-2.29,10.09,3.43,10.54,2.82C365.56,75.06,365.09,75,364.68,74.94Z" transform="translate(-18.82 -12.99)"/><path class="cls-34" d="M472,65.29a2.31,2.31,0,0,0-.54.54,2,2,0,0,0,.6,2.76c-.41,1.26-.83,2.51-1.25,3.77a13.27,13.27,0,0,0-7.54-.41c-.51-1.31-1-2.62-1.54-3.94a6.28,6.28,0,0,0,1.42-2.12,2.52,2.52,0,0,0-.3-2.44,3.22,3.22,0,0,0-2.92-.79,5.38,5.38,0,0,0-2.72,1.05,3,3,0,0,0-1.17,2.58c.19,1.69,2.19,2.69,3.88,2.43l1.39,4a14.32,14.32,0,0,0-5.63,6.58l-2-.64c0-1.46-.52-3.18-1.93-3.55-1.61-.42-3,1.27-3.37,2.89a3.16,3.16,0,0,0,1,3.35c1.27.83,3.14-.16,3.58-1.62l2.49.9a10.39,10.39,0,0,0-.11,6.68l-3.21,1a2.33,2.33,0,0,0-3.51-.25,2.28,2.28,0,0,0,.7,3.42,2.22,2.22,0,0,0,3-1.7l3.46-1.36A12.52,12.52,0,0,0,459,92.59l-1.21,1.68A2.18,2.18,0,0,0,455,96.35a2.28,2.28,0,0,0,2.87,2A2.38,2.38,0,0,0,459.14,95l1.15-1.43a13.46,13.46,0,0,0,4.76,1.93,15.92,15.92,0,0,1,.23,3.23,4,4,0,0,0-3,1.48,3.34,3.34,0,0,0-.51,3.23,3.88,3.88,0,0,0,2.91,2.18,4.37,4.37,0,0,0,4.66-2,3.24,3.24,0,0,0-1.72-4.46l-.1-3.44A12,12,0,0,0,473.1,94l2.84,3.68a2.41,2.41,0,0,0-.3,3.14,2.94,2.94,0,0,0,3.1,1,3.73,3.73,0,0,0,2.4-2.31,2.55,2.55,0,0,0,0-2.08c-.69-1.31-2.55-1.26-4-1-.84-1.16-1.69-2.32-2.54-3.47a13.14,13.14,0,0,0,3.93-6.33l3.95.69A2.56,2.56,0,0,0,487.21,89a5.14,5.14,0,0,0,.3-4,2.4,2.4,0,0,0-2.82-1.65A3.46,3.46,0,0,0,483,85.54l-4.09-.66a13,13,0,0,0-.67-5.74l3.38-1.56a2.86,2.86,0,1,0-.7-1.5l-3.39,1.53a11.06,11.06,0,0,0-5.15-4.69l1.59-3.8a1.91,1.91,0,0,0,2.11-1.77A2.48,2.48,0,0,0,474.34,65,2.67,2.67,0,0,0,472,65.29Zm-14,29.21,0,0h0Z" transform="translate(-18.82 -12.99)"/><path class="cls-23" d="M467,77.88c-2.11.06-8.07,2-7.74,3.08s8.22-1.64,8.56-2.13C468.32,78,467.29,77.87,467,77.88Z" transform="translate(-18.82 -12.99)"/><path class="cls-23" d="M462.72,75.87c1.16,1.77,3,7.79,2,8.14s-3.64-7.41-3.14-8.25S462.53,75.59,462.72,75.87Z" transform="translate(-18.82 -12.99)"/><path class="cls-23" d="M475.63,82.15c-2.11.08-8.05,2.07-7.7,3.16s8.2-1.73,8.53-2.23C477,82.28,476,82.13,475.63,82.15Z" transform="translate(-18.82 -12.99)"/><path class="cls-23" d="M471.39,80.18c1.17,1.76,3.12,7.76,2,8.12s-3.72-7.38-3.23-8.21S471.19,79.9,471.39,80.18Z" transform="translate(-18.82 -12.99)"/><path class="cls-3" d="M460.62,85.76s-3,4.58-1.24,5.65c2.6,1.62,4.94-3.86,4.94-3.86Z" transform="translate(-18.82 -12.99)"/><path class="cls-23" d="M469.24,89.67s-9-4.82-9.31-4.2,9.22,5.35,9.78,4.84C470.08,90,469.63,89.81,469.24,89.67Z" transform="translate(-18.82 -12.99)"/><path class="cls-34" d="M446.83,359.48a2.42,2.42,0,0,0-.53.53,1.93,1.93,0,0,0,.6,2.72c-.41,1.24-.83,2.47-1.24,3.71a13.09,13.09,0,0,0-7.41-.41l-1.52-3.87a6.25,6.25,0,0,0,1.4-2.09,2.5,2.5,0,0,0-.3-2.4,3.12,3.12,0,0,0-2.87-.77,5.25,5.25,0,0,0-2.68,1,3,3,0,0,0-1.15,2.54c.19,1.67,2.16,2.66,3.82,2.4.45,1.33.91,2.65,1.36,4a14.16,14.16,0,0,0-5.53,6.47l-2-.63c0-1.43-.52-3.13-1.9-3.49-1.58-.41-3,1.25-3.32,2.85a3.12,3.12,0,0,0,1,3.29c1.25.82,3.09-.16,3.52-1.59l2.45.88a10.23,10.23,0,0,0-.11,6.58l-3.16,1a2.29,2.29,0,0,0-3.44-.25,2.24,2.24,0,0,0,.68,3.37,2.2,2.2,0,0,0,3-1.68l3.39-1.34a12.31,12.31,0,0,0,3.14,4l-1.2,1.66a2.13,2.13,0,0,0-2.66,2A2.23,2.23,0,0,0,433,392a2.33,2.33,0,0,0,1.21-3.23l1.13-1.41a13.27,13.27,0,0,0,4.69,1.91,16,16,0,0,1,.22,3.17,4,4,0,0,0-2.92,1.46,3.27,3.27,0,0,0-.5,3.17,3.83,3.83,0,0,0,2.86,2.15,4.32,4.32,0,0,0,4.59-2,3.19,3.19,0,0,0-1.69-4.39c0-1.13-.07-2.26-.1-3.39a11.86,11.86,0,0,0,5.46-1.7l2.79,3.62a2.35,2.35,0,0,0-.29,3.08,2.87,2.87,0,0,0,3.05,1,3.7,3.7,0,0,0,2.36-2.27,2.52,2.52,0,0,0,0-2c-.68-1.29-2.51-1.24-3.95-1l-2.5-3.42a12.89,12.89,0,0,0,3.86-6.22l3.89.68a2.61,2.61,0,0,0,1.74,3.06,2.65,2.65,0,0,0,2.94-1.28,5.13,5.13,0,0,0,.3-3.9,2.38,2.38,0,0,0-2.78-1.63,3.51,3.51,0,0,0-1.69,2.08l-4-.65a12.86,12.86,0,0,0-.65-5.64l3.32-1.54a2.81,2.81,0,1,0-.69-1.48l-3.33,1.51a10.86,10.86,0,0,0-5.07-4.61l1.56-3.75a1.87,1.87,0,0,0,2.08-1.73,2.43,2.43,0,0,0-1.68-2.32A2.64,2.64,0,0,0,446.83,359.48ZM433.1,388.22l0,0h0Z" transform="translate(-18.82 -12.99)"/><path class="cls-23" d="M441.84,371.87c-2.07.05-7.94,1.95-7.61,3s8.09-1.61,8.42-2.1C443.2,372,442.18,371.86,441.84,371.87Z" transform="translate(-18.82 -12.99)"/><path class="cls-23" d="M437.69,369.89c1.14,1.74,3,7.66,1.93,8s-3.59-7.29-3.09-8.11S437.5,369.61,437.69,369.89Z" transform="translate(-18.82 -12.99)"/><path class="cls-23" d="M450.39,376.06c-2.08.08-7.92,2-7.58,3.11s8.07-1.69,8.4-2.18C451.74,376.19,450.72,376.05,450.39,376.06Z" transform="translate(-18.82 -12.99)"/><path class="cls-23" d="M446.21,374.13c1.16,1.73,3.08,7.63,2,8s-3.66-7.26-3.17-8.08S446,373.85,446.21,374.13Z" transform="translate(-18.82 -12.99)"/><path class="cls-3" d="M435.62,379.62s-2.92,4.5-1.22,5.56c2.56,1.59,4.86-3.8,4.86-3.8Z" transform="translate(-18.82 -12.99)"/><path class="cls-23" d="M444.1,383.47s-8.83-4.75-9.16-4.14,9.08,5.27,9.62,4.77C444.93,383.76,444.49,383.61,444.1,383.47Z" transform="translate(-18.82 -12.99)"/><path class="cls-34" d="M419.36,21.86a1.43,1.43,0,0,0-.44.3,1.37,1.37,0,0,0,.09,2l-1.31,2.44a9.29,9.29,0,0,0-5.13-1.17l-.6-2.89a4.57,4.57,0,0,0,1.23-1.29,1.79,1.79,0,0,0,.09-1.72,2.25,2.25,0,0,0-1.92-.89,3.72,3.72,0,0,0-2,.4,2.09,2.09,0,0,0-1.11,1.63,2.32,2.32,0,0,0,2.38,2.14l.48,2.95a9.92,9.92,0,0,0-4.65,3.86l-1.31-.68c.2-1,0-2.25-.9-2.67s-2.24.51-2.66,1.59a2.18,2.18,0,0,0,.27,2.41,1.78,1.78,0,0,0,2.65-.69l1.61.92a7.23,7.23,0,0,0-.87,4.58l-2.33.33a1.63,1.63,0,0,0-2.38-.59,1.59,1.59,0,0,0,.07,2.44,1.55,1.55,0,0,0,2.27-.81l2.54-.53a8.66,8.66,0,0,0,1.71,3.19l-1,1A1.52,1.52,0,0,0,404,41.2a1.59,1.59,0,0,0,1.74,1.68A1.66,1.66,0,0,0,407,40.76l1-.85a9.21,9.21,0,0,0,3.05,1.9,11.2,11.2,0,0,1-.23,2.24,2.87,2.87,0,0,0-2.22.67,2.35,2.35,0,0,0-.74,2.16,2.74,2.74,0,0,0,1.75,1.85,3.06,3.06,0,0,0,3.45-.86,2.26,2.26,0,0,0-.65-3.27c.11-.79.22-1.59.34-2.38a8.37,8.37,0,0,0,4-.53l1.51,2.87a1.67,1.67,0,0,0-.57,2.12,2,2,0,0,0,2,1,2.63,2.63,0,0,0,1.93-1.3,1.82,1.82,0,0,0,.24-1.43c-.33-1-1.61-1.17-2.65-1.19l-1.33-2.69a9.19,9.19,0,0,0,3.45-3.88l2.64.94a1.85,1.85,0,0,0,.85,2.35A1.87,1.87,0,0,0,427,40a3.62,3.62,0,0,0,.67-2.69,1.69,1.69,0,0,0-1.74-1.47,2.43,2.43,0,0,0-1.43,1.25l-2.74-.94a9.14,9.14,0,0,0,.22-4l2.51-.67a2,2,0,1,0-.3-1.11l-2.51.65a7.74,7.74,0,0,0-3-3.84l1.54-2.43a1.33,1.33,0,0,0,1.67-1,1.73,1.73,0,0,0-.9-1.82A1.8,1.8,0,0,0,419.36,21.86ZM406.29,40.28a.08.08,0,0,0,0,0h0Z" transform="translate(-18.82 -12.99)"/><path class="cls-23" d="M414.37,29.91c-1.45-.21-5.78.41-5.68,1.2s5.85-.15,6.14-.45C415.3,30.17,414.61,29.94,414.37,29.91Z" transform="translate(-18.82 -12.99)"/><path class="cls-23" d="M411.71,28c.58,1.35,1.17,5.71.38,5.82s-1.63-5.52-1.18-6S411.61,27.81,411.71,28Z" transform="translate(-18.82 -12.99)"/><path class="cls-23" d="M419.84,33.87c-1.46-.19-5.78.47-5.67,1.26s5.84-.21,6.13-.51C420.77,34.13,420.08,33.91,419.84,33.87Z" transform="translate(-18.82 -12.99)"/><path class="cls-23" d="M417.15,32c.6,1.35,1.23,5.7.44,5.82s-1.68-5.51-1.24-6S417.06,31.8,417.15,32Z" transform="translate(-18.82 -12.99)"/><path class="cls-3" d="M409.09,34.58s-2.59,2.79-1.53,3.74c1.6,1.42,3.86-2.07,3.86-2.07Z" transform="translate(-18.82 -12.99)"/><path class="cls-23" d="M414.55,38.29s-5.6-4.38-5.9-4,5.7,4.77,6.15,4.49C415.09,38.59,414.8,38.44,414.55,38.29Z" transform="translate(-18.82 -12.99)"/><path class="cls-2" d="M472.44,296.35a2.31,2.31,0,0,0-2.4-.41,1.46,1.46,0,0,0-.8,1.92l-.31.11c-.19.08-.37.18-.56.27l-1,.52-1.57.85a10.22,10.22,0,0,0-2.88-3.37,11.09,11.09,0,0,0-1.85-1.09c.14-.37,1.11-3.16,1.18-3.3a3,3,0,0,0,2.81-2.09,2.36,2.36,0,0,0-1-2.65,3,3,0,0,0-3-.22,2.84,2.84,0,0,0-1.25,2.3,2.54,2.54,0,0,0,1,2.19c-.08.18-1.07,2.86-1.18,3.22a10.61,10.61,0,0,0-3.18-.42,20.48,20.48,0,0,0-2.2.22c-.08-.41-.18-.81-.27-1.2l-.45-1.85a5.9,5.9,0,0,0-.2-.72,3.94,3.94,0,0,0,1.7-1.36,1.7,1.7,0,0,0,0-1.73c-.6-1.08-2.06-1.34-3.19-1.29a3.8,3.8,0,0,0-2.87,1.52c-1.26,1.81.92,4.24,2.84,3.46a.76.76,0,0,1,0,.11c0,.13.78,3.06.89,3.48v.05a11.91,11.91,0,0,0-5.61,4.12,32.46,32.46,0,0,1-3.42-2.12,4.9,4.9,0,0,0,0-1.75,2.63,2.63,0,0,0-.82-1.76c-1-.73-2.43-.06-3.23.61a3,3,0,0,0-1.13,2.72,2.57,2.57,0,0,0,1.52,2,2.4,2.4,0,0,0,2.62-.67,3.09,3.09,0,0,0,.52.38c1,.68,2,1.35,3.09,2a7.87,7.87,0,0,0-.39.83,10.61,10.61,0,0,0-.82,4.48h-.53l-1.68,0c-.33,0-.65,0-1,.07a2.56,2.56,0,0,0-1.19-1.2,3.71,3.71,0,0,0-2.32-.5c-1.66.29-2.53,2.3-2.5,3.82a4.31,4.31,0,0,0,1.56,3.28,2.78,2.78,0,0,0,3.44-.11,3.45,3.45,0,0,0,1.47-3.1,11.29,11.29,0,0,1,2-.06l1,0a11.61,11.61,0,0,0,2.15,4.3c-.24.2-.46.4-.68.6s-.4.4-.59.61a1.83,1.83,0,0,0-1.38-.18,2.75,2.75,0,0,0-1,.49,1.81,1.81,0,0,0-.64.9,2.35,2.35,0,0,0,1.27,2.48,1.78,1.78,0,0,0,1.28.15,2,2,0,0,0,1-.7,1.62,1.62,0,0,0,.18-1.92l1-.8c.19-.17.39-.33.59-.48a4.68,4.68,0,0,0,.39.38,10.82,10.82,0,0,0,3.65,2.29.93.93,0,0,0,0,.13c-.17.51-.33,1-.49,1.52s-.31,1-.42,1.5c0,.1,0,.19,0,.28a1.86,1.86,0,0,0-.81.15,1.49,1.49,0,0,0-1,1.26,2.32,2.32,0,0,0,2.24,2.32,1.91,1.91,0,0,0,1.95-1.08,2,2,0,0,0,.05-1,2.41,2.41,0,0,0-.31-.9,1.64,1.64,0,0,0-.7-.68l-.12,0c0-.15.07-.29.1-.43.11-.43.21-.87.29-1.31s.22-.89.35-1.33l0-.08a9.88,9.88,0,0,0,1.34.24,10.09,10.09,0,0,0,4.87-.83c.11.28.23.56.35.84l.38.84a3.1,3.1,0,0,0,.28.58,2.42,2.42,0,0,0-1.63,2.57c.47,2.32,3.56,2,5,.86a2.37,2.37,0,0,0,.79-3.1c-.72-1.12-2-1.19-3.24-1.1a8.09,8.09,0,0,0-.73-1.8c.34-.24.69-.46,1-.69l.5-.24a.21.21,0,0,0,.13-.2,13.33,13.33,0,0,0,2.64-2.33,10.61,10.61,0,0,0,1.37-2.29c.65.12,1.29.31,1.93.49l1.19.35a6,6,0,0,0,.78.17,3.65,3.65,0,0,0,.63,2.4,2.52,2.52,0,0,0,1.78,1,3.08,3.08,0,0,0,3-2.31,4.94,4.94,0,0,0,0-3.43,2,2,0,0,0-1-1,2.43,2.43,0,0,0-1.64.06,4.6,4.6,0,0,0-1.81,1.2c-.11.13-.22.26-.32.4a7.69,7.69,0,0,0-.91-.34c-.47-.15-.94-.28-1.42-.41L467.3,308h0a9,9,0,0,0,.21-2.48,14.71,14.71,0,0,0-.78-3.57c-.1-.32-.21-.64-.34-1l1.85-.73,1-.45c.15-.07.35-.15.52-.25a2.14,2.14,0,0,0,1,.64,1.77,1.77,0,0,0,2.19-.79A2.7,2.7,0,0,0,472.44,296.35Zm-25.75,18.13h0l.05,0Z" transform="translate(-18.82 -12.99)"/><path class="cls-20" d="M461.14,303.89a2.6,2.6,0,0,0,.59-2.94,2.56,2.56,0,0,0-3.8-1.28,2.39,2.39,0,0,0-1.23,3.08,3,3,0,0,0,1.71,1.8A2.43,2.43,0,0,0,461.14,303.89Z" transform="translate(-18.82 -12.99)"/><path class="cls-23" d="M461.14,303.89a2.56,2.56,0,0,0-1.14-2,2.52,2.52,0,0,0-3.3.83,3,3,0,0,0,1.71,1.8A2.43,2.43,0,0,0,461.14,303.89Z" transform="translate(-18.82 -12.99)"/><path class="cls-20" d="M453.92,304.19a2.57,2.57,0,0,0-3.92-.84,2.89,2.89,0,0,0-1.11,2.51v0h0a3.09,3.09,0,0,0,2.15,2.27,2.35,2.35,0,0,0,2.18-.49A2.69,2.69,0,0,0,453.92,304.19Z" transform="translate(-18.82 -12.99)"/><path class="cls-23" d="M453.22,307.66a2.55,2.55,0,0,0-1.36-2.66,2.43,2.43,0,0,0-3,.88h0a3.09,3.09,0,0,0,2.15,2.27A2.35,2.35,0,0,0,453.22,307.66Z" transform="translate(-18.82 -12.99)"/><path class="cls-23" d="M453.21,310.69a5.93,5.93,0,0,1,1.55-2.33,6.51,6.51,0,0,1,5.6-1.85,3.39,3.39,0,0,1,2.67,1.85,2.05,2.05,0,0,1-.4,2.69c-.71.48-1.68-.08-2.39-.29a3.57,3.57,0,0,0-2.76.12c-1,.62-1.13,2.12-2.2,2.7a1.41,1.41,0,0,1-1.88-.69A2.55,2.55,0,0,1,453.21,310.69Z" transform="translate(-18.82 -12.99)"/><path class="cls-23" d="M461.83,300.55a3.8,3.8,0,0,1-4-1.73c-.18-.35-.42-1.79.41-1.58.21.05.3.3.4.48a2.39,2.39,0,0,0,.8.93,4.35,4.35,0,0,0,1.55.62,4.8,4.8,0,0,1,1.07.19.47.47,0,0,1,.33.55C462.35,300.48,461.92,300.49,461.83,300.55Z" transform="translate(-18.82 -12.99)"/><path class="cls-23" d="M448.32,306.34a3.8,3.8,0,0,0,1.84-3.91c-.09-.38-.86-1.62-1.35-.91-.12.18,0,.42,0,.62a2.33,2.33,0,0,1,0,1.23,4.23,4.23,0,0,1-.75,1.48,5.51,5.51,0,0,0-.68.85.48.48,0,0,0,.11.63A.7.7,0,0,0,448.32,306.34Z" transform="translate(-18.82 -12.99)"/></g></g></svg>